<svg xmlns="http://www.w3.org/2000/svg" xmlns:xlink="http://www.w3.org/1999/xlink" width="1366" zoomAndPan="magnify" viewBox="0 0 1024.5 576" height="768" preserveAspectRatio="xMidYMid meet" version="1.0"><defs><g/><clipPath id="3dba4e5d26"><path d="M 0 0.140625 L 1024 0.140625 L 1024 575.859375 L 0 575.859375 Z M 0 0.140625 " clip-rule="nonzero"/></clipPath></defs><g clip-path="url(#3dba4e5d26)"><path fill="#ffffff" d="M 0 0.140625 L 1024 0.140625 L 1024 575.859375 L 0 575.859375 Z M 0 0.140625 " fill-opacity="1" fill-rule="nonzero"/><path fill="#8b2e44" d="M 0 0.140625 L 1024 0.140625 L 1024 575.859375 L 0 575.859375 Z M 0 0.140625 " fill-opacity="1" fill-rule="nonzero"/></g><g fill="#ffffff" fill-opacity="1"><g transform="translate(333.375072, 63.444904)"><g><path d="M 5.851562 0.367188 C 8.617188 0.367188 10.472656 -1.121094 10.664062 -3.726562 L 8.425781 -3.726562 C 8.25 -2.636719 7.515625 -1.679688 5.996094 -1.679688 C 4.011719 -1.679688 2.925781 -3.292969 2.925781 -5.691406 C 2.925781 -8.011719 4.011719 -9.59375 5.996094 -9.59375 C 7.402344 -9.59375 8.234375 -8.808594 8.425781 -7.609375 L 10.679688 -7.609375 C 10.472656 -10.105469 8.667969 -11.640625 5.882812 -11.640625 C 2.847656 -11.640625 0.558594 -9.371094 0.558594 -5.691406 C 0.558594 -2 2.8125 0.367188 5.851562 0.367188 Z M 5.851562 0.367188 "/></g></g></g><g fill="#ffffff" fill-opacity="1"><g transform="translate(346.390059, 63.444904)"><g><path d="M 7.769531 -5.46875 C 9.226562 -5.851562 9.945312 -6.796875 9.945312 -8.25 C 9.945312 -9.867188 9.066406 -11.382812 6.347656 -11.382812 L 1.039062 -11.382812 L 1.039062 0 L 3.40625 0 L 3.40625 -4.414062 L 5.5 -4.414062 C 6.730469 -4.414062 7.132812 -3.902344 7.226562 -2.925781 L 7.5 0 L 9.929688 0 L 9.464844 -3.613281 C 9.371094 -4.363281 9.097656 -5.195312 7.769531 -5.46875 Z M 3.40625 -9.402344 L 5.996094 -9.402344 C 7.164062 -9.402344 7.628906 -8.761719 7.628906 -7.929688 C 7.628906 -7.050781 7.097656 -6.332031 5.675781 -6.332031 L 3.40625 -6.332031 Z M 3.40625 -9.402344 "/></g></g></g><g fill="#ffffff" fill-opacity="1"><g transform="translate(359.149224, 63.444904)"><g><path d="M 3.40625 -4.859375 L 8.730469 -4.859375 L 8.730469 -6.972656 L 3.40625 -6.972656 L 3.40625 -9.273438 L 9.320312 -9.273438 L 9.320312 -11.382812 L 1.039062 -11.382812 L 1.039062 0 L 9.480469 0 L 9.480469 -2.109375 L 3.40625 -2.109375 Z M 3.40625 -4.859375 "/></g></g></g><g fill="#ffffff" fill-opacity="1"><g transform="translate(371.204909, 63.444904)"><g><path d="M 11.097656 0 L 7.164062 -11.382812 L 4.429688 -11.382812 L 0.398438 0 L 2.910156 0 L 3.675781 -2.367188 L 7.804688 -2.367188 L 8.570312 0 Z M 4.78125 -5.722656 L 5.757812 -9.003906 L 6.714844 -5.722656 L 7.179688 -4.316406 L 4.316406 -4.316406 Z M 4.78125 -5.722656 "/></g></g></g><g fill="#ffffff" fill-opacity="1"><g transform="translate(383.196516, 63.444904)"><g><path d="M 0.320312 -11.382812 L 0.320312 -9.273438 L 3.742188 -9.273438 L 3.742188 0 L 6.109375 0 L 6.109375 -9.273438 L 9.515625 -9.273438 L 9.515625 -11.382812 Z M 0.320312 -11.382812 "/></g></g></g><g fill="#ffffff" fill-opacity="1"><g transform="translate(394.964408, 63.444904)"><g><path d="M 3.40625 0 L 3.40625 -11.382812 L 1.039062 -11.382812 L 1.039062 0 Z M 3.40625 0 "/></g></g></g><g fill="#ffffff" fill-opacity="1"><g transform="translate(401.344225, 63.444904)"><g><path d="M 6.378906 -6.429688 L 5.40625 -2.671875 L 4.429688 -6.429688 L 2.910156 -11.382812 L 0.398438 -11.382812 L 4.253906 0 L 6.492188 0 L 10.359375 -11.382812 L 7.851562 -11.382812 Z M 6.378906 -6.429688 "/></g></g></g><g fill="#ffffff" fill-opacity="1"><g transform="translate(414.039436, 63.444904)"><g><path d="M 3.40625 -4.859375 L 8.730469 -4.859375 L 8.730469 -6.972656 L 3.40625 -6.972656 L 3.40625 -9.273438 L 9.320312 -9.273438 L 9.320312 -11.382812 L 1.039062 -11.382812 L 1.039062 0 L 9.480469 0 L 9.480469 -2.109375 L 3.40625 -2.109375 Z M 3.40625 -4.859375 "/></g></g></g><g fill="#ffffff" fill-opacity="1"><g transform="translate(426.095121, 63.444904)"><g/></g></g><g fill="#ffffff" fill-opacity="1"><g transform="translate(432.027258, 63.444904)"><g><path d="M 4.75 -11.382812 L 1.039062 -11.382812 L 1.039062 0 L 5.070312 0 C 8.9375 0 10.632812 -2.367188 10.632812 -5.773438 C 10.632812 -9.179688 9.019531 -11.382812 4.75 -11.382812 Z M 3.40625 -2 L 3.40625 -9.464844 L 4.523438 -9.464844 C 7.433594 -9.464844 8.265625 -8.15625 8.265625 -5.691406 C 8.265625 -3.214844 7.355469 -2 4.84375 -2 Z M 3.40625 -2 "/></g></g></g><g fill="#ffffff" fill-opacity="1"><g transform="translate(445.106198, 63.444904)"><g><path d="M 3.40625 0 L 3.40625 -11.382812 L 1.039062 -11.382812 L 1.039062 0 Z M 3.40625 0 "/></g></g></g><g fill="#ffffff" fill-opacity="1"><g transform="translate(451.486015, 63.444904)"><g><path d="M 7.769531 -5.46875 C 9.226562 -5.851562 9.945312 -6.796875 9.945312 -8.25 C 9.945312 -9.867188 9.066406 -11.382812 6.347656 -11.382812 L 1.039062 -11.382812 L 1.039062 0 L 3.40625 0 L 3.40625 -4.414062 L 5.5 -4.414062 C 6.730469 -4.414062 7.132812 -3.902344 7.226562 -2.925781 L 7.5 0 L 9.929688 0 L 9.464844 -3.613281 C 9.371094 -4.363281 9.097656 -5.195312 7.769531 -5.46875 Z M 3.40625 -9.402344 L 5.996094 -9.402344 C 7.164062 -9.402344 7.628906 -8.761719 7.628906 -7.929688 C 7.628906 -7.050781 7.097656 -6.332031 5.675781 -6.332031 L 3.40625 -6.332031 Z M 3.40625 -9.402344 "/></g></g></g><g fill="#ffffff" fill-opacity="1"><g transform="translate(464.245179, 63.444904)"><g><path d="M 3.40625 -4.859375 L 8.730469 -4.859375 L 8.730469 -6.972656 L 3.40625 -6.972656 L 3.40625 -9.273438 L 9.320312 -9.273438 L 9.320312 -11.382812 L 1.039062 -11.382812 L 1.039062 0 L 9.480469 0 L 9.480469 -2.109375 L 3.40625 -2.109375 Z M 3.40625 -4.859375 "/></g></g></g><g fill="#ffffff" fill-opacity="1"><g transform="translate(476.300864, 63.444904)"><g><path d="M 5.851562 0.367188 C 8.617188 0.367188 10.472656 -1.121094 10.664062 -3.726562 L 8.425781 -3.726562 C 8.25 -2.636719 7.515625 -1.679688 5.996094 -1.679688 C 4.011719 -1.679688 2.925781 -3.292969 2.925781 -5.691406 C 2.925781 -8.011719 4.011719 -9.59375 5.996094 -9.59375 C 7.402344 -9.59375 8.234375 -8.808594 8.425781 -7.609375 L 10.679688 -7.609375 C 10.472656 -10.105469 8.667969 -11.640625 5.882812 -11.640625 C 2.847656 -11.640625 0.558594 -9.371094 0.558594 -5.691406 C 0.558594 -2 2.8125 0.367188 5.851562 0.367188 Z M 5.851562 0.367188 "/></g></g></g><g fill="#ffffff" fill-opacity="1"><g transform="translate(489.315852, 63.444904)"><g><path d="M 0.320312 -11.382812 L 0.320312 -9.273438 L 3.742188 -9.273438 L 3.742188 0 L 6.109375 0 L 6.109375 -9.273438 L 9.515625 -9.273438 L 9.515625 -11.382812 Z M 0.320312 -11.382812 "/></g></g></g><g fill="#ffffff" fill-opacity="1"><g transform="translate(500.763946, 63.444904)"><g><path d="M 5.933594 0.367188 C 8.96875 0.367188 11.367188 -2.015625 11.367188 -5.707031 C 11.367188 -9.386719 8.96875 -11.65625 5.933594 -11.65625 C 2.894531 -11.65625 0.558594 -9.386719 0.558594 -5.707031 C 0.558594 -2 2.894531 0.367188 5.933594 0.367188 Z M 5.933594 -1.679688 C 4.0625 -1.679688 2.925781 -3.292969 2.925781 -5.707031 C 2.925781 -8.027344 4.0625 -9.609375 5.933594 -9.609375 C 7.804688 -9.609375 9.003906 -8.042969 9.003906 -5.707031 C 9.003906 -3.292969 7.804688 -1.679688 5.933594 -1.679688 Z M 5.933594 -1.679688 "/></g></g></g><g fill="#ffffff" fill-opacity="1"><g transform="translate(514.626309, 63.444904)"><g><path d="M 7.769531 -5.46875 C 9.226562 -5.851562 9.945312 -6.796875 9.945312 -8.25 C 9.945312 -9.867188 9.066406 -11.382812 6.347656 -11.382812 L 1.039062 -11.382812 L 1.039062 0 L 3.40625 0 L 3.40625 -4.414062 L 5.5 -4.414062 C 6.730469 -4.414062 7.132812 -3.902344 7.226562 -2.925781 L 7.5 0 L 9.929688 0 L 9.464844 -3.613281 C 9.371094 -4.363281 9.097656 -5.195312 7.769531 -5.46875 Z M 3.40625 -9.402344 L 5.996094 -9.402344 C 7.164062 -9.402344 7.628906 -8.761719 7.628906 -7.929688 C 7.628906 -7.050781 7.097656 -6.332031 5.675781 -6.332031 L 3.40625 -6.332031 Z M 3.40625 -9.402344 "/></g></g></g><g fill="#ffffff" fill-opacity="1"><g transform="translate(527.385474, 63.444904)"><g/></g></g><g fill="#ffffff" fill-opacity="1"><g transform="translate(533.317599, 63.444904)"><g><path d="M 9.339844 -2.589844 C 10.203125 -3.820312 10.570312 -4.941406 10.730469 -5.996094 L 8.777344 -5.996094 C 8.683594 -5.324219 8.425781 -4.683594 8.105469 -4.109375 L 6.570312 -5.996094 C 7.753906 -6.714844 8.585938 -7.753906 8.585938 -8.984375 C 8.585938 -10.488281 7.308594 -11.65625 5.484375 -11.65625 C 3.742188 -11.65625 2.445312 -10.585938 2.445312 -9.066406 C 2.445312 -8.394531 2.703125 -7.722656 3.597656 -6.585938 L 3.675781 -6.492188 C 1.742188 -5.628906 0.960938 -4.460938 0.960938 -2.941406 C 0.960938 -1.039062 2.460938 0.238281 4.621094 0.238281 C 5.964844 0.238281 6.972656 -0.238281 7.929688 -1.054688 L 8.746094 0 L 11.449219 0 Z M 5.546875 -9.800781 C 6.042969 -9.800781 6.507812 -9.496094 6.507812 -8.859375 C 6.507812 -8.316406 6.171875 -7.929688 5.386719 -7.453125 L 5.054688 -7.867188 C 4.71875 -8.28125 4.605469 -8.585938 4.605469 -8.890625 C 4.605469 -9.464844 5.019531 -9.800781 5.546875 -9.800781 Z M 4.875 -1.710938 C 3.871094 -1.710938 3.292969 -2.285156 3.292969 -3.101562 C 3.292969 -3.582031 3.5 -4.300781 4.859375 -4.972656 L 6.796875 -2.496094 C 6.140625 -1.933594 5.515625 -1.710938 4.875 -1.710938 Z M 4.875 -1.710938 "/></g></g></g><g fill="#ffffff" fill-opacity="1"><g transform="translate(546.972113, 63.444904)"><g/></g></g><g fill="#ffffff" fill-opacity="1"><g transform="translate(552.904261, 63.444904)"><g><path d="M 4.75 -11.382812 L 1.039062 -11.382812 L 1.039062 0 L 5.070312 0 C 8.9375 0 10.632812 -2.367188 10.632812 -5.773438 C 10.632812 -9.179688 9.019531 -11.382812 4.75 -11.382812 Z M 3.40625 -2 L 3.40625 -9.464844 L 4.523438 -9.464844 C 7.433594 -9.464844 8.265625 -8.15625 8.265625 -5.691406 C 8.265625 -3.214844 7.355469 -2 4.84375 -2 Z M 3.40625 -2 "/></g></g></g><g fill="#ffffff" fill-opacity="1"><g transform="translate(565.983189, 63.444904)"><g><path d="M 3.40625 -4.859375 L 8.730469 -4.859375 L 8.730469 -6.972656 L 3.40625 -6.972656 L 3.40625 -9.273438 L 9.320312 -9.273438 L 9.320312 -11.382812 L 1.039062 -11.382812 L 1.039062 0 L 9.480469 0 L 9.480469 -2.109375 L 3.40625 -2.109375 Z M 3.40625 -4.859375 "/></g></g></g><g fill="#ffffff" fill-opacity="1"><g transform="translate(578.038874, 63.444904)"><g><path d="M 5.453125 0.367188 C 8.265625 0.367188 9.976562 -1.007812 9.976562 -3.214844 C 9.976562 -5.117188 8.652344 -6.058594 6.875 -6.492188 L 4.605469 -7.050781 C 3.726562 -7.273438 3.277344 -7.707031 3.277344 -8.332031 C 3.277344 -9.097656 3.949219 -9.707031 5.164062 -9.707031 C 6.410156 -9.707031 7.339844 -9.050781 7.484375 -7.898438 L 9.785156 -7.898438 C 9.640625 -10.136719 7.898438 -11.640625 5.148438 -11.640625 C 2.222656 -11.640625 0.894531 -9.898438 0.894531 -8.074219 C 0.894531 -6.476562 1.917969 -5.355469 3.695312 -4.910156 L 5.789062 -4.382812 C 6.875 -4.109375 7.53125 -3.804688 7.53125 -2.988281 C 7.53125 -2.09375 6.730469 -1.566406 5.4375 -1.566406 C 3.933594 -1.566406 3.007812 -2.269531 2.941406 -3.535156 L 0.625 -3.535156 C 0.6875 -1.070312 2.558594 0.367188 5.453125 0.367188 Z M 5.453125 0.367188 "/></g></g></g><g fill="#ffffff" fill-opacity="1"><g transform="translate(590.574222, 63.444904)"><g><path d="M 3.40625 0 L 3.40625 -11.382812 L 1.039062 -11.382812 L 1.039062 0 Z M 3.40625 0 "/></g></g></g><g fill="#ffffff" fill-opacity="1"><g transform="translate(596.95405, 63.444904)"><g><path d="M 10.824219 -6.15625 L 6.074219 -6.15625 L 6.074219 -4.171875 L 8.777344 -4.171875 C 8.539062 -2.511719 7.402344 -1.679688 5.996094 -1.679688 C 4.03125 -1.679688 2.925781 -3.292969 2.925781 -5.691406 C 2.925781 -8.027344 4.011719 -9.609375 5.996094 -9.609375 C 7.386719 -9.609375 8.21875 -8.84375 8.425781 -7.644531 L 10.746094 -7.785156 C 10.359375 -10.183594 8.683594 -11.65625 5.867188 -11.65625 C 2.832031 -11.65625 0.558594 -9.386719 0.558594 -5.691406 C 0.558594 -2 2.863281 0.367188 5.742188 0.367188 C 7.257812 0.367188 8.347656 -0.304688 8.921875 -1.214844 L 9.289062 0 L 10.824219 0 Z M 10.824219 -6.15625 "/></g></g></g><g fill="#ffffff" fill-opacity="1"><g transform="translate(610.75246, 63.444904)"><g><path d="M 7.867188 -6.394531 C 7.867188 -5.597656 7.882812 -4.78125 7.898438 -3.980469 C 7.53125 -4.621094 7.148438 -5.246094 6.746094 -5.882812 L 3.359375 -11.382812 L 1.039062 -11.382812 L 1.039062 0 L 3.40625 0 L 3.40625 -4.988281 C 3.40625 -5.773438 3.40625 -6.585938 3.390625 -7.386719 C 3.789062 -6.714844 4.1875 -6.042969 4.605469 -5.371094 L 7.914062 0 L 10.234375 0 L 10.234375 -11.382812 L 7.867188 -11.382812 Z M 7.867188 -6.394531 "/></g></g></g><g fill="#ffffff" fill-opacity="1"><g transform="translate(623.959294, 63.444904)"><g><path d="M 3.40625 -4.859375 L 8.730469 -4.859375 L 8.730469 -6.972656 L 3.40625 -6.972656 L 3.40625 -9.273438 L 9.320312 -9.273438 L 9.320312 -11.382812 L 1.039062 -11.382812 L 1.039062 0 L 9.480469 0 L 9.480469 -2.109375 L 3.40625 -2.109375 Z M 3.40625 -4.859375 "/></g></g></g><g fill="#ffffff" fill-opacity="1"><g transform="translate(636.014979, 63.444904)"><g><path d="M 7.769531 -5.46875 C 9.226562 -5.851562 9.945312 -6.796875 9.945312 -8.25 C 9.945312 -9.867188 9.066406 -11.382812 6.347656 -11.382812 L 1.039062 -11.382812 L 1.039062 0 L 3.40625 0 L 3.40625 -4.414062 L 5.5 -4.414062 C 6.730469 -4.414062 7.132812 -3.902344 7.226562 -2.925781 L 7.5 0 L 9.929688 0 L 9.464844 -3.613281 C 9.371094 -4.363281 9.097656 -5.195312 7.769531 -5.46875 Z M 3.40625 -9.402344 L 5.996094 -9.402344 C 7.164062 -9.402344 7.628906 -8.761719 7.628906 -7.929688 C 7.628906 -7.050781 7.097656 -6.332031 5.675781 -6.332031 L 3.40625 -6.332031 Z M 3.40625 -9.402344 "/></g></g></g><g fill="#f8f3f1" fill-opacity="1"><g transform="translate(228.230103, 336.314044)"><g><path d="M 20.710938 0.910156 C 29.019531 0.910156 37.152344 -4.152344 38.179688 -14.738281 L 33.398438 -14.738281 C 32.375 -6.941406 26.457031 -3.472656 20.710938 -3.472656 C 12.515625 -3.472656 7 -9.671875 7 -20.253906 C 7 -30.839844 12.515625 -37.039062 20.710938 -37.039062 C 26.171875 -37.039062 31.292969 -34.535156 33.113281 -27.480469 L 37.949219 -27.480469 C 35.902344 -37.269531 28.675781 -41.421875 20.710938 -41.421875 C 9.898438 -41.421875 1.992188 -33.398438 1.992188 -20.253906 C 1.992188 -7.113281 9.898438 0.910156 20.710938 0.910156 Z M 20.710938 0.910156 "/></g></g></g><g fill="#f8f3f1" fill-opacity="1"><g transform="translate(268.110087, 336.314044)"><g><path d="M 33.457031 -11.722656 C 33.171875 -15.929688 31.40625 -18.546875 27.878906 -19.6875 C 31.691406 -20.9375 34.535156 -24.125 34.535156 -29.472656 C 34.535156 -36.699219 28.789062 -40.511719 20.824219 -40.511719 L 3.699219 -40.511719 L 3.699219 0 L 8.476562 0 L 8.476562 -17.296875 L 21.679688 -17.296875 C 26.515625 -17.296875 28.675781 -15.363281 28.902344 -9.730469 L 29.074219 -5.40625 C 29.132812 -3.242188 29.472656 -1.308594 30.382812 0 L 35.332031 0 C 34.367188 -1.421875 33.96875 -3.355469 33.855469 -5.175781 Z M 8.476562 -21.621094 L 8.476562 -36.1875 L 20.824219 -36.1875 C 26.117188 -36.1875 29.585938 -34.023438 29.585938 -29.1875 C 29.585938 -24.066406 26.117188 -21.621094 21.394531 -21.621094 Z M 8.476562 -21.621094 "/></g></g></g><g fill="#f8f3f1" fill-opacity="1"><g transform="translate(304.861113, 336.314044)"><g><path d="M 31.863281 -40.511719 L 3.699219 -40.511719 L 3.699219 0 L 31.636719 0 L 31.636719 -4.324219 L 8.476562 -4.324219 L 8.476562 -18.945312 L 29.585938 -18.945312 L 29.585938 -23.269531 L 8.476562 -23.269531 L 8.476562 -36.1875 L 31.863281 -36.1875 Z M 31.863281 -40.511719 "/></g></g></g><g fill="#f8f3f1" fill-opacity="1"><g transform="translate(337.288382, 336.314044)"><g><path d="M 38.746094 0 L 22.359375 -40.511719 L 17.011719 -40.511719 L 0.851562 0 L 5.859375 0 L 10.527344 -11.777344 L 28.960938 -11.777344 L 33.683594 0 Z M 12.402344 -16.558594 C 14.167969 -20.996094 17.296875 -29.074219 19.628906 -35.332031 C 22.074219 -29.074219 25.261719 -20.996094 27.027344 -16.613281 L 27.253906 -16.101562 L 12.234375 -16.101562 Z M 12.402344 -16.558594 "/></g></g></g><g fill="#f8f3f1" fill-opacity="1"><g transform="translate(368.633831, 336.314044)"><g><path d="M 1.136719 -40.511719 L 1.136719 -36.1875 L 14.90625 -36.1875 L 14.90625 0 L 19.855469 0 L 19.855469 -36.1875 L 33.625 -36.1875 L 33.625 -40.511719 Z M 1.136719 -40.511719 "/></g></g></g><g fill="#f8f3f1" fill-opacity="1"><g transform="translate(403.393709, 336.314044)"><g><path d="M 8.476562 0 L 8.476562 -40.511719 L 3.699219 -40.511719 L 3.699219 0 Z M 8.476562 0 "/></g></g></g><g fill="#f8f3f1" fill-opacity="1"><g transform="translate(414.99922, 336.314044)"><g><path d="M 22.246094 -14.851562 C 20.996094 -11.378906 19.800781 -7.964844 18.777344 -4.78125 C 17.75 -7.964844 16.558594 -11.378906 15.304688 -14.851562 L 5.917969 -40.511719 L 0.851562 -40.511719 L 16.101562 0 L 21.449219 0 L 36.472656 -40.511719 L 31.464844 -40.511719 Z M 22.246094 -14.851562 "/></g></g></g><g fill="#f8f3f1" fill-opacity="1"><g transform="translate(452.31914, 336.314044)"><g><path d="M 31.863281 -40.511719 L 3.699219 -40.511719 L 3.699219 0 L 31.636719 0 L 31.636719 -4.324219 L 8.476562 -4.324219 L 8.476562 -18.945312 L 29.585938 -18.945312 L 29.585938 -23.269531 L 8.476562 -23.269531 L 8.476562 -36.1875 L 31.863281 -36.1875 Z M 31.863281 -40.511719 "/></g></g></g><g fill="#f8f3f1" fill-opacity="1"><g transform="translate(485.600578, 336.314044)"><g/></g></g><g fill="#f8f3f1" fill-opacity="1"><g transform="translate(496.409706, 336.314044)"><g><path d="M 20.539062 -40.511719 L 3.699219 -40.511719 L 3.699219 0 L 8.476562 0 L 8.476562 -15.589844 L 20.539062 -15.589844 C 29.53125 -15.589844 33.96875 -20.765625 33.96875 -28.050781 C 33.96875 -35.332031 29.53125 -40.511719 20.539062 -40.511719 Z M 8.476562 -19.914062 L 8.476562 -36.1875 L 20.539062 -36.1875 C 26.230469 -36.1875 29.019531 -33.171875 29.019531 -28.050781 C 29.019531 -22.929688 26.230469 -19.914062 20.539062 -19.914062 Z M 8.476562 -19.914062 "/></g></g></g><g fill="#f8f3f1" fill-opacity="1"><g transform="translate(532.022897, 336.314044)"><g><path d="M 21.394531 0.910156 C 33.171875 0.910156 40.796875 -7.679688 40.796875 -20.253906 C 40.796875 -32.828125 33.171875 -41.421875 21.394531 -41.421875 C 9.617188 -41.421875 1.992188 -32.828125 1.992188 -20.253906 C 1.992188 -7.679688 9.617188 0.910156 21.394531 0.910156 Z M 21.394531 -3.472656 C 12.6875 -3.472656 7 -9.957031 7 -20.253906 C 7 -30.554688 12.6875 -37.039062 21.394531 -37.039062 C 30.097656 -37.039062 35.789062 -30.554688 35.789062 -20.253906 C 35.789062 -9.957031 30.097656 -3.472656 21.394531 -3.472656 Z M 21.394531 -3.472656 "/></g></g></g><g fill="#f8f3f1" fill-opacity="1"><g transform="translate(574.804281, 336.314044)"><g><path d="M 33.457031 -11.722656 C 33.171875 -15.929688 31.40625 -18.546875 27.878906 -19.6875 C 31.691406 -20.9375 34.535156 -24.125 34.535156 -29.472656 C 34.535156 -36.699219 28.789062 -40.511719 20.824219 -40.511719 L 3.699219 -40.511719 L 3.699219 0 L 8.476562 0 L 8.476562 -17.296875 L 21.679688 -17.296875 C 26.515625 -17.296875 28.675781 -15.363281 28.902344 -9.730469 L 29.074219 -5.40625 C 29.132812 -3.242188 29.472656 -1.308594 30.382812 0 L 35.332031 0 C 34.367188 -1.421875 33.96875 -3.355469 33.855469 -5.175781 Z M 8.476562 -21.621094 L 8.476562 -36.1875 L 20.824219 -36.1875 C 26.117188 -36.1875 29.585938 -34.023438 29.585938 -29.1875 C 29.585938 -24.066406 26.117188 -21.621094 21.394531 -21.621094 Z M 8.476562 -21.621094 "/></g></g></g><g fill="#f8f3f1" fill-opacity="1"><g transform="translate(608.710447, 336.314044)"><g><path d="M 1.136719 -40.511719 L 1.136719 -36.1875 L 14.90625 -36.1875 L 14.90625 0 L 19.855469 0 L 19.855469 -36.1875 L 33.625 -36.1875 L 33.625 -40.511719 Z M 1.136719 -40.511719 "/></g></g></g><g fill="#f8f3f1" fill-opacity="1"><g transform="translate(643.470325, 336.314044)"><g><path d="M 30.496094 -40.511719 L 3.699219 -40.511719 L 3.699219 0 L 8.476562 0 L 8.476562 -18.945312 L 28.222656 -18.945312 L 28.222656 -23.269531 L 8.476562 -23.269531 L 8.476562 -36.1875 L 30.496094 -36.1875 Z M 30.496094 -40.511719 "/></g></g></g><g fill="#f8f3f1" fill-opacity="1"><g transform="translate(673.963296, 336.314044)"><g><path d="M 21.394531 0.910156 C 33.171875 0.910156 40.796875 -7.679688 40.796875 -20.253906 C 40.796875 -32.828125 33.171875 -41.421875 21.394531 -41.421875 C 9.617188 -41.421875 1.992188 -32.828125 1.992188 -20.253906 C 1.992188 -7.679688 9.617188 0.910156 21.394531 0.910156 Z M 21.394531 -3.472656 C 12.6875 -3.472656 7 -9.957031 7 -20.253906 C 7 -30.554688 12.6875 -37.039062 21.394531 -37.039062 C 30.097656 -37.039062 35.789062 -30.554688 35.789062 -20.253906 C 35.789062 -9.957031 30.097656 -3.472656 21.394531 -3.472656 Z M 21.394531 -3.472656 "/></g></g></g><g fill="#f8f3f1" fill-opacity="1"><g transform="translate(716.74468, 336.314044)"><g><path d="M 8.476562 -40.511719 L 3.699219 -40.511719 L 3.699219 0 L 28.847656 0 L 28.847656 -4.324219 L 8.476562 -4.324219 Z M 8.476562 -40.511719 "/></g></g></g><g fill="#f8f3f1" fill-opacity="1"><g transform="translate(746.725767, 336.314044)"><g><path d="M 8.476562 0 L 8.476562 -40.511719 L 3.699219 -40.511719 L 3.699219 0 Z M 8.476562 0 "/></g></g></g><g fill="#f8f3f1" fill-opacity="1"><g transform="translate(758.900275, 336.314044)"><g><path d="M 21.394531 0.910156 C 33.171875 0.910156 40.796875 -7.679688 40.796875 -20.253906 C 40.796875 -32.828125 33.171875 -41.421875 21.394531 -41.421875 C 9.617188 -41.421875 1.992188 -32.828125 1.992188 -20.253906 C 1.992188 -7.679688 9.617188 0.910156 21.394531 0.910156 Z M 21.394531 -3.472656 C 12.6875 -3.472656 7 -9.957031 7 -20.253906 C 7 -30.554688 12.6875 -37.039062 21.394531 -37.039062 C 30.097656 -37.039062 35.789062 -30.554688 35.789062 -20.253906 C 35.789062 -9.957031 30.097656 -3.472656 21.394531 -3.472656 Z M 21.394531 -3.472656 "/></g></g></g><g fill="#f8f3f1" fill-opacity="1"><g transform="translate(144.126031, 514.539438)"><g><path d="M 12.34375 0 L 7.394531 -12.808594 L 5.503906 -12.808594 L 0.539062 0 L 2.320312 0 L 3.707031 -3.761719 L 9.140625 -3.761719 L 10.488281 0 Z M 6.027344 -10.074219 L 6.457031 -11.40625 L 6.871094 -10.074219 L 8.617188 -5.21875 L 4.246094 -5.21875 Z M 6.027344 -10.074219 "/></g></g></g><g fill="#f8f3f1" fill-opacity="1"><g transform="translate(157.889269, 514.539438)"><g><path d="M 9.210938 -6.890625 C 10.398438 -7.375 11.066406 -8.347656 11.066406 -9.679688 C 11.066406 -11.660156 9.644531 -12.808594 7.304688 -12.808594 L 1.527344 -12.808594 L 1.527344 0 L 7.429688 0 C 10.09375 0 11.660156 -1.402344 11.660156 -3.722656 C 11.660156 -5.363281 10.867188 -6.386719 9.210938 -6.890625 Z M 7.105469 -11.351562 C 8.5625 -11.351562 9.355469 -10.722656 9.355469 -9.445312 C 9.355469 -8.132812 8.511719 -7.375 6.945312 -7.375 L 3.203125 -7.375 L 3.203125 -11.351562 Z M 3.203125 -1.457031 L 3.203125 -5.972656 L 7.304688 -5.972656 C 9.03125 -5.972656 9.949219 -5.199219 9.949219 -3.722656 C 9.949219 -2.230469 9.050781 -1.457031 7.304688 -1.457031 Z M 3.203125 -1.457031 "/></g></g></g><g fill="#f8f3f1" fill-opacity="1"><g transform="translate(171.778444, 514.539438)"><g><path d="M 7.195312 0.304688 C 10.792969 0.304688 13.257812 -2.445312 13.257812 -6.40625 C 13.257812 -10.289062 10.792969 -13.042969 7.195312 -13.042969 C 3.617188 -13.042969 1.152344 -10.289062 1.152344 -6.40625 C 1.152344 -2.484375 3.617188 0.304688 7.195312 0.304688 Z M 7.214844 -1.1875 C 4.660156 -1.1875 2.859375 -3.21875 2.859375 -6.40625 C 2.859375 -9.554688 4.660156 -11.550781 7.214844 -11.550781 C 9.75 -11.550781 11.550781 -9.554688 11.550781 -6.40625 C 11.550781 -3.183594 9.789062 -1.1875 7.214844 -1.1875 Z M 7.214844 -1.1875 "/></g></g></g><g fill="#f8f3f1" fill-opacity="1"><g transform="translate(187.07093, 514.539438)"><g><path d="M 6.476562 0.289062 C 9.589844 0.289062 11.425781 -1.257812 11.425781 -4.046875 L 11.425781 -12.808594 L 9.75 -12.808594 L 9.75 -3.992188 C 9.75 -2.25 8.707031 -1.207031 6.476562 -1.207031 C 4.246094 -1.207031 3.203125 -2.25 3.203125 -3.992188 L 3.203125 -12.808594 L 1.527344 -12.808594 L 1.527344 -4.046875 C 1.527344 -1.257812 3.363281 0.289062 6.476562 0.289062 Z M 6.476562 0.289062 "/></g></g></g><g fill="#f8f3f1" fill-opacity="1"><g transform="translate(200.906138, 514.539438)"><g><path d="M 0.628906 -12.808594 L 0.628906 -11.351562 L 4.910156 -11.351562 L 4.910156 0 L 6.585938 0 L 6.585938 -11.351562 L 10.867188 -11.351562 L 10.867188 -12.808594 Z M 0.628906 -12.808594 "/></g></g></g><g fill="#f8f3f1" fill-opacity="1"><g transform="translate(213.284057, 514.539438)"><g/></g></g><g fill="#f8f3f1" fill-opacity="1"><g transform="translate(219.023237, 514.539438)"><g><path d="M 8.382812 -3.023438 L 7.953125 -1.746094 L 7.519531 -3.023438 L 3.886719 -12.808594 L 1.527344 -12.808594 L 1.527344 0 L 3.058594 0 L 3.058594 -8.492188 L 3.003906 -10.8125 L 3.851562 -8.796875 L 7.160156 0 L 8.742188 0 L 11.800781 -8.511719 L 12.71875 -10.792969 L 12.683594 -8.492188 L 12.683594 0 L 14.214844 0 L 14.214844 -12.808594 L 11.890625 -12.808594 Z M 8.382812 -3.023438 "/></g></g></g><g fill="#f8f3f1" fill-opacity="1"><g transform="translate(235.647074, 514.539438)"><g><path d="M 3.203125 -5.863281 L 10.019531 -5.863281 L 10.019531 -7.324219 L 3.203125 -7.324219 L 3.203125 -11.351562 L 10.597656 -11.351562 L 10.597656 -12.808594 L 1.527344 -12.808594 L 1.527344 0 L 10.757812 0 L 10.757812 -1.457031 L 3.203125 -1.457031 Z M 3.203125 -5.863281 "/></g></g></g><g fill="#f8f3f1" fill-opacity="1"><g transform="translate(116.225383, 422.537603)"><g><path d="M 227.25 -86.015625 C 227.164062 -85.742188 226.785156 -85.785156 226.109375 -86.140625 C 225.429688 -86.503906 223.96875 -86.6875 221.71875 -86.6875 C 218.300781 -86.6875 214.453125 -85.628906 210.171875 -83.515625 C 205.898438 -81.398438 201.421875 -78.609375 196.734375 -75.140625 C 192.054688 -71.679688 187.351562 -67.832031 182.625 -63.59375 C 177.90625 -59.363281 173.382812 -55.085938 169.0625 -50.765625 C 164.738281 -46.453125 160.820312 -42.445312 157.3125 -38.75 C 150.738281 -31.726562 145 -25.289062 140.09375 -19.4375 C 135.1875 -13.59375 131.472656 -8.820312 128.953125 -5.125 C 127.242188 -2.695312 125.914062 -0.945312 124.96875 0.125 C 124.019531 1.207031 123.050781 1.75 122.0625 1.75 C 121.257812 1.75 120.675781 1.1875 120.3125 0.0625 C 119.945312 -1.0625 120.265625 -2.789062 121.265625 -5.125 C 122.160156 -7.195312 123.773438 -9.832031 126.109375 -13.03125 C 128.453125 -16.226562 131.222656 -19.71875 134.421875 -23.5 C 137.617188 -27.28125 141.015625 -31.082031 144.609375 -34.90625 C 148.210938 -38.726562 151.726562 -42.257812 155.15625 -45.5 C 165.59375 -55.40625 175.289062 -63.578125 184.25 -70.015625 C 193.207031 -76.453125 201.195312 -81.15625 208.21875 -84.125 C 198.5 -81.332031 189.609375 -77.570312 181.546875 -72.84375 C 173.492188 -68.125 165.726562 -63.109375 158.25 -57.796875 C 150.332031 -52.210938 143.039062 -46.804688 136.375 -41.578125 C 129.71875 -36.359375 123.257812 -31.09375 117 -25.78125 C 110.75 -20.476562 104.15625 -14.898438 97.21875 -9.046875 C 96.59375 -8.054688 95.914062 -7.019531 95.1875 -5.9375 C 94.46875 -4.863281 93.75 -3.875 93.03125 -2.96875 C 91.050781 -0.539062 89.429688 1.050781 88.171875 1.8125 C 86.910156 2.582031 86.007812 2.789062 85.46875 2.4375 C 84.84375 2.070312 84.707031 1.328125 85.0625 0.203125 C 85.425781 -0.921875 86.191406 -2.066406 87.359375 -3.234375 C 89.078125 -5.035156 90.519531 -6.410156 91.6875 -7.359375 C 92.851562 -8.304688 94.113281 -9.316406 95.46875 -10.390625 C 97.351562 -13.179688 99.578125 -16.625 102.140625 -20.71875 C 104.710938 -24.820312 107.328125 -28.941406 109.984375 -33.078125 C 112.640625 -37.222656 115.046875 -40.828125 117.203125 -43.890625 C 120.171875 -48.117188 123.566406 -52.457031 127.390625 -56.90625 C 131.222656 -61.363281 135.457031 -65.53125 140.09375 -69.40625 C 144.726562 -73.28125 149.703125 -76.34375 155.015625 -78.59375 C 151.867188 -77.957031 148.066406 -76.691406 143.609375 -74.796875 C 139.148438 -72.910156 134.128906 -69.988281 128.546875 -66.03125 C 124.140625 -62.875 119.882812 -59.519531 115.78125 -55.96875 C 111.6875 -52.414062 107.078125 -48.070312 101.953125 -42.9375 C 96.722656 -37.71875 92.21875 -33.191406 88.4375 -29.359375 C 84.664062 -25.535156 81.316406 -22.179688 78.390625 -19.296875 C 75.460938 -16.421875 72.601562 -13.769531 69.8125 -11.34375 C 61.53125 -4.144531 53.269531 1.140625 45.03125 4.515625 C 36.789062 7.898438 28.984375 9.59375 21.609375 9.59375 C 14.492188 9.59375 9.269531 8.101562 5.9375 5.125 C 2.601562 2.15625 0.847656 -1.800781 0.671875 -6.75 C 0.398438 -12.601562 1.972656 -18.253906 5.390625 -23.703125 C 8.816406 -29.148438 13.863281 -34.210938 20.53125 -38.890625 C 24.757812 -41.953125 29.210938 -44.3125 33.890625 -45.96875 C 38.578125 -47.632812 42.851562 -48.785156 46.71875 -49.421875 C 46.09375 -49.867188 45.460938 -50.703125 44.828125 -51.921875 C 44.203125 -53.140625 43.796875 -54.644531 43.609375 -56.4375 C 43.335938 -62.5625 45.632812 -68.078125 50.5 -72.984375 C 55.363281 -77.890625 62.429688 -81.757812 71.703125 -84.59375 C 80.972656 -87.425781 91.910156 -88.84375 104.515625 -88.84375 C 111.984375 -88.84375 118.976562 -88.460938 125.5 -87.703125 C 132.03125 -86.941406 137.859375 -86.0625 142.984375 -85.0625 C 148.117188 -84.070312 152.265625 -83.128906 155.421875 -82.234375 C 157.222656 -81.785156 159.132812 -81.195312 161.15625 -80.46875 C 163.1875 -79.75 164.738281 -79.125 165.8125 -78.59375 C 166.269531 -78.320312 166.695312 -78.003906 167.09375 -77.640625 C 167.5 -77.285156 167.566406 -76.972656 167.296875 -76.703125 C 167.210938 -76.515625 166.492188 -76.738281 165.140625 -77.375 C 164.515625 -77.726562 163.769531 -78.0625 162.90625 -78.375 C 162.050781 -78.695312 161.222656 -78.90625 160.421875 -79 C 159.609375 -79.175781 158.476562 -78.992188 157.03125 -78.453125 C 155.59375 -77.910156 153.882812 -76.832031 151.90625 -75.21875 C 147.769531 -71.789062 143.453125 -67.128906 138.953125 -61.234375 C 134.453125 -55.335938 129.8125 -49.285156 125.03125 -43.078125 C 121.613281 -38.660156 118.148438 -34.269531 114.640625 -29.90625 C 111.128906 -25.539062 107.53125 -21.378906 103.84375 -17.421875 C 108.164062 -20.753906 113.046875 -24.78125 118.484375 -29.5 C 123.929688 -34.226562 129.941406 -39.316406 136.515625 -44.765625 C 143.085938 -50.210938 150.195312 -55.546875 157.84375 -60.765625 C 161.988281 -63.554688 166.691406 -66.546875 171.953125 -69.734375 C 177.222656 -72.929688 182.71875 -75.925781 188.4375 -78.71875 C 194.15625 -81.507812 199.847656 -83.78125 205.515625 -85.53125 C 211.191406 -87.289062 216.503906 -88.171875 221.453125 -88.171875 C 223.703125 -88.171875 225.273438 -87.878906 226.171875 -87.296875 C 227.078125 -86.710938 227.4375 -86.285156 227.25 -86.015625 Z M 157.71875 -80.078125 C 152.132812 -81.421875 144.75 -82.65625 135.5625 -83.78125 C 126.382812 -84.90625 116.257812 -85.46875 105.1875 -85.46875 C 97.269531 -85.46875 89.6875 -84.789062 82.4375 -83.4375 C 75.1875 -82.09375 68.75 -80.140625 63.125 -77.578125 C 57.5 -75.015625 53.109375 -71.910156 49.953125 -68.265625 C 46.804688 -64.617188 45.367188 -60.453125 45.640625 -55.765625 C 45.734375 -54.503906 46.113281 -53.222656 46.78125 -51.921875 C 47.457031 -50.617188 48.113281 -49.875 48.75 -49.6875 C 51.175781 -49.957031 53.425781 -50.09375 55.5 -50.09375 C 60.894531 -50.09375 65.210938 -48.96875 68.453125 -46.71875 C 71.703125 -44.46875 73.328125 -41.363281 73.328125 -37.40625 C 73.328125 -35.425781 72.960938 -33.78125 72.234375 -32.46875 C 71.515625 -31.164062 70.882812 -30.695312 70.34375 -31.0625 C 69.988281 -31.238281 70.054688 -31.726562 70.546875 -32.53125 C 71.046875 -33.34375 71.296875 -34.878906 71.296875 -37.140625 C 71.296875 -40.734375 69.8125 -43.5 66.84375 -45.4375 C 63.875 -47.375 60.140625 -48.34375 55.640625 -48.34375 C 50.679688 -48.34375 45.296875 -47.238281 39.484375 -45.03125 C 33.679688 -42.820312 27.992188 -39.738281 22.421875 -35.78125 C 18.910156 -33.351562 15.691406 -30.539062 12.765625 -27.34375 C 9.835938 -24.144531 7.472656 -20.789062 5.671875 -17.28125 C 3.867188 -13.769531 2.96875 -10.257812 2.96875 -6.75 C 2.96875 -2.25 4.429688 1.234375 7.359375 3.703125 C 10.285156 6.179688 14.445312 7.421875 19.84375 7.421875 C 24.4375 7.421875 29.410156 6.429688 34.765625 4.453125 C 40.128906 2.472656 45.597656 -0.222656 51.171875 -3.640625 C 56.753906 -7.066406 62.113281 -10.894531 67.25 -15.125 C 70.394531 -17.644531 73.363281 -20.1875 76.15625 -22.75 C 78.945312 -25.3125 81.960938 -28.164062 85.203125 -31.3125 C 88.441406 -34.46875 92.3125 -38.164062 96.8125 -42.40625 C 100.6875 -46 104.128906 -49.164062 107.140625 -51.90625 C 110.160156 -54.65625 113.175781 -57.242188 116.1875 -59.671875 C 119.207031 -62.109375 122.609375 -64.632812 126.390625 -67.25 C 132.773438 -71.75 138.578125 -74.921875 143.796875 -76.765625 C 149.023438 -78.609375 153.664062 -79.710938 157.71875 -80.078125 Z M 157.71875 -80.078125 "/></g></g></g><g fill="#f8f3f1" fill-opacity="1"><g transform="translate(262.190224, 422.537603)"><g><path d="M 51.859375 -38.625 C 47.984375 -35.113281 44.242188 -31.597656 40.640625 -28.078125 C 37.046875 -24.566406 33.851562 -21.347656 31.0625 -18.421875 C 28.269531 -15.503906 26.0625 -13.097656 24.4375 -11.203125 C 22.726562 -9.222656 21.351562 -7.488281 20.3125 -6 C 19.28125 -4.519531 18.765625 -3.332031 18.765625 -2.4375 C 18.765625 -1.625 19.21875 -1.21875 20.125 -1.21875 C 21.019531 -1.21875 22.207031 -1.644531 23.6875 -2.5 C 25.175781 -3.351562 26.726562 -4.34375 28.34375 -5.46875 C 29.96875 -6.59375 31.367188 -7.601562 32.546875 -8.5 C 34.703125 -10.21875 36.925781 -12.085938 39.21875 -14.109375 C 41.519531 -16.140625 43.476562 -17.875 45.09375 -19.3125 C 45.363281 -19.488281 45.675781 -19.664062 46.03125 -19.84375 C 46.394531 -20.03125 46.710938 -19.941406 46.984375 -19.578125 C 47.347656 -19.222656 47.125 -18.679688 46.3125 -17.953125 C 44.332031 -16.066406 42.171875 -14.132812 39.828125 -12.15625 C 37.492188 -10.175781 35.46875 -8.507812 33.75 -7.15625 C 32.40625 -6.070312 30.851562 -4.898438 29.09375 -3.640625 C 27.34375 -2.378906 25.585938 -1.300781 23.828125 -0.40625 C 22.078125 0.488281 20.523438 0.9375 19.171875 0.9375 C 16.023438 0.9375 14.453125 -0.585938 14.453125 -3.640625 C 14.453125 -4.628906 14.742188 -5.84375 15.328125 -7.28125 C 15.910156 -8.726562 16.921875 -10.304688 18.359375 -12.015625 C 14.492188 -8.503906 10.625 -5.46875 6.75 -2.90625 C 2.875 -0.34375 -0.140625 0.9375 -2.296875 0.9375 C -5.359375 0.9375 -6.890625 -0.546875 -6.890625 -3.515625 C -6.972656 -5.941406 -6 -8.929688 -3.96875 -12.484375 C -1.945312 -16.046875 0.585938 -19.359375 3.640625 -22.421875 C 6.703125 -25.566406 10.191406 -28.46875 14.109375 -31.125 C 18.023438 -33.78125 21.875 -35.914062 25.65625 -37.53125 C 29.4375 -39.15625 32.585938 -39.96875 35.109375 -39.96875 C 36.367188 -39.96875 37.398438 -39.765625 38.203125 -39.359375 C 39.015625 -38.953125 39.421875 -38.164062 39.421875 -37 C 39.421875 -36.28125 39.148438 -35.359375 38.609375 -34.234375 C 38.078125 -33.109375 37.046875 -31.78125 35.515625 -30.25 C 35.421875 -30.15625 35.394531 -30.085938 35.4375 -30.046875 C 35.488281 -30.003906 35.554688 -30.023438 35.640625 -30.109375 C 37.710938 -32.179688 39.785156 -33.9375 41.859375 -35.375 C 43.929688 -36.8125 45.503906 -37.710938 46.578125 -38.078125 C 47.304688 -38.347656 48.003906 -38.503906 48.671875 -38.546875 C 49.347656 -38.597656 50.046875 -38.625 50.765625 -38.625 Z M 37.53125 -36.453125 C 37.53125 -37.441406 36.992188 -37.9375 35.921875 -37.9375 C 34.023438 -37.9375 30.800781 -36.335938 26.25 -33.140625 C 21.707031 -29.953125 16.242188 -25.296875 9.859375 -19.171875 C 6.523438 -15.835938 3.617188 -12.59375 1.140625 -9.4375 C -1.328125 -6.289062 -2.5625 -3.957031 -2.5625 -2.4375 C -2.5625 -2.070312 -2.492188 -1.753906 -2.359375 -1.484375 C -2.222656 -1.210938 -1.84375 -1.078125 -1.21875 -1.078125 C -0.0390625 -1.078125 1.847656 -1.882812 4.453125 -3.5 C 7.066406 -5.125 10.101562 -7.375 13.5625 -10.25 C 17.03125 -13.132812 20.519531 -16.378906 24.03125 -19.984375 C 25.65625 -21.609375 27.523438 -23.476562 29.640625 -25.59375 C 31.753906 -27.707031 33.597656 -29.773438 35.171875 -31.796875 C 36.742188 -33.828125 37.53125 -35.378906 37.53125 -36.453125 Z M 37.53125 -36.453125 "/></g></g></g><g fill="#f8f3f1" fill-opacity="1"><g transform="translate(301.213017, 422.537603)"><g><path d="M 33.75 -7.15625 C 32.40625 -6.070312 30.832031 -4.898438 29.03125 -3.640625 C 27.226562 -2.378906 25.445312 -1.300781 23.6875 -0.40625 C 21.9375 0.488281 20.390625 0.9375 19.046875 0.9375 C 15.984375 0.9375 14.453125 -0.546875 14.453125 -3.515625 C 14.453125 -4.503906 14.742188 -5.738281 15.328125 -7.21875 C 15.910156 -8.707031 16.921875 -10.304688 18.359375 -12.015625 C 14.304688 -8.410156 10.390625 -5.347656 6.609375 -2.828125 C 2.828125 -0.316406 -0.140625 0.9375 -2.296875 0.9375 C -5.359375 0.9375 -6.890625 -0.546875 -6.890625 -3.515625 C -6.972656 -5.941406 -6 -8.929688 -3.96875 -12.484375 C -1.945312 -16.046875 0.585938 -19.359375 3.640625 -22.421875 C 6.703125 -25.566406 10.191406 -28.46875 14.109375 -31.125 C 18.023438 -33.78125 21.847656 -35.894531 25.578125 -37.46875 C 29.316406 -39.039062 32.40625 -39.828125 34.84375 -39.828125 C 35.914062 -39.828125 36.859375 -39.601562 37.671875 -39.15625 C 38.484375 -38.707031 38.890625 -37.988281 38.890625 -37 C 38.890625 -36.007812 38.394531 -34.796875 37.40625 -33.359375 C 37.3125 -33.171875 37.285156 -33.054688 37.328125 -33.015625 C 37.378906 -32.972656 37.445312 -33.039062 37.53125 -33.21875 C 39.25 -35.019531 41.613281 -37.425781 44.625 -40.4375 C 47.644531 -43.457031 50.550781 -46.226562 53.34375 -48.75 C 62.613281 -57.300781 69.90625 -63.242188 75.21875 -66.578125 C 76.289062 -67.296875 77.476562 -67.988281 78.78125 -68.65625 C 80.09375 -69.332031 81.425781 -69.851562 82.78125 -70.21875 C 84.039062 -70.664062 85.363281 -70.957031 86.75 -71.09375 C 88.144531 -71.226562 89.703125 -71.296875 91.421875 -71.296875 C 91.773438 -71.296875 91.773438 -71.207031 91.421875 -71.03125 C 89.703125 -70.664062 87.765625 -69.804688 85.609375 -68.453125 C 83.453125 -67.109375 81.832031 -66.03125 80.75 -65.21875 C 76.070312 -61.613281 71.144531 -57.539062 65.96875 -53 C 60.789062 -48.457031 55.816406 -43.84375 51.046875 -39.15625 C 47.535156 -35.644531 44.023438 -32.085938 40.515625 -28.484375 C 37.003906 -24.890625 33.828125 -21.5625 30.984375 -18.5 C 28.148438 -15.4375 25.925781 -12.960938 24.3125 -11.078125 C 22.78125 -9.097656 21.472656 -7.363281 20.390625 -5.875 C 19.304688 -4.382812 18.765625 -3.238281 18.765625 -2.4375 C 18.765625 -1.625 19.171875 -1.21875 19.984375 -1.21875 C 20.878906 -1.21875 22.140625 -1.664062 23.765625 -2.5625 C 25.390625 -3.46875 27.03125 -4.503906 28.6875 -5.671875 C 30.351562 -6.835938 31.640625 -7.78125 32.546875 -8.5 C 34.703125 -10.21875 36.925781 -12.085938 39.21875 -14.109375 C 41.519531 -16.140625 43.476562 -17.875 45.09375 -19.3125 C 45.363281 -19.488281 45.675781 -19.664062 46.03125 -19.84375 C 46.394531 -20.03125 46.710938 -19.941406 46.984375 -19.578125 C 47.347656 -19.222656 47.125 -18.679688 46.3125 -17.953125 C 44.332031 -16.066406 42.171875 -14.132812 39.828125 -12.15625 C 37.492188 -10.175781 35.46875 -8.507812 33.75 -7.15625 Z M 37 -36.59375 C 37 -37.582031 36.414062 -38.078125 35.25 -38.078125 C 33.351562 -38.078125 30.242188 -36.429688 25.921875 -33.140625 C 21.597656 -29.859375 16.242188 -25.203125 9.859375 -19.171875 C 6.523438 -15.835938 3.617188 -12.617188 1.140625 -9.515625 C -1.328125 -6.410156 -2.5625 -4.050781 -2.5625 -2.4375 C -2.5625 -1.53125 -2.113281 -1.078125 -1.21875 -1.078125 C -0.0390625 -1.078125 1.847656 -1.882812 4.453125 -3.5 C 7.066406 -5.125 10.101562 -7.375 13.5625 -10.25 C 17.03125 -13.132812 20.519531 -16.378906 24.03125 -19.984375 C 25.65625 -21.609375 27.476562 -23.5 29.5 -25.65625 C 31.53125 -27.8125 33.285156 -29.898438 34.765625 -31.921875 C 36.253906 -33.953125 37 -35.507812 37 -36.59375 Z M 37 -36.59375 "/></g></g></g><g fill="#f8f3f1" fill-opacity="1"><g transform="translate(340.23581, 422.537603)"><g><path d="M 33.75 -7.15625 C 32.40625 -6.070312 30.832031 -4.898438 29.03125 -3.640625 C 27.226562 -2.378906 25.445312 -1.300781 23.6875 -0.40625 C 21.9375 0.488281 20.390625 0.9375 19.046875 0.9375 C 15.984375 0.9375 14.453125 -0.546875 14.453125 -3.515625 C 14.453125 -4.503906 14.742188 -5.738281 15.328125 -7.21875 C 15.910156 -8.707031 16.921875 -10.304688 18.359375 -12.015625 C 14.304688 -8.410156 10.390625 -5.347656 6.609375 -2.828125 C 2.828125 -0.316406 -0.140625 0.9375 -2.296875 0.9375 C -5.359375 0.9375 -6.890625 -0.546875 -6.890625 -3.515625 C -6.972656 -5.941406 -6 -8.929688 -3.96875 -12.484375 C -1.945312 -16.046875 0.585938 -19.359375 3.640625 -22.421875 C 6.703125 -25.566406 10.191406 -28.46875 14.109375 -31.125 C 18.023438 -33.78125 21.847656 -35.894531 25.578125 -37.46875 C 29.316406 -39.039062 32.40625 -39.828125 34.84375 -39.828125 C 35.914062 -39.828125 36.859375 -39.601562 37.671875 -39.15625 C 38.484375 -38.707031 38.890625 -37.988281 38.890625 -37 C 38.890625 -36.007812 38.394531 -34.796875 37.40625 -33.359375 C 37.3125 -33.171875 37.285156 -33.054688 37.328125 -33.015625 C 37.378906 -32.972656 37.445312 -33.039062 37.53125 -33.21875 C 39.25 -35.019531 41.613281 -37.425781 44.625 -40.4375 C 47.644531 -43.457031 50.550781 -46.226562 53.34375 -48.75 C 62.613281 -57.300781 69.90625 -63.242188 75.21875 -66.578125 C 76.289062 -67.296875 77.476562 -67.988281 78.78125 -68.65625 C 80.09375 -69.332031 81.425781 -69.851562 82.78125 -70.21875 C 84.039062 -70.664062 85.363281 -70.957031 86.75 -71.09375 C 88.144531 -71.226562 89.703125 -71.296875 91.421875 -71.296875 C 91.773438 -71.296875 91.773438 -71.207031 91.421875 -71.03125 C 89.703125 -70.664062 87.765625 -69.804688 85.609375 -68.453125 C 83.453125 -67.109375 81.832031 -66.03125 80.75 -65.21875 C 76.070312 -61.613281 71.144531 -57.539062 65.96875 -53 C 60.789062 -48.457031 55.816406 -43.84375 51.046875 -39.15625 C 47.535156 -35.644531 44.023438 -32.085938 40.515625 -28.484375 C 37.003906 -24.890625 33.828125 -21.5625 30.984375 -18.5 C 28.148438 -15.4375 25.925781 -12.960938 24.3125 -11.078125 C 22.78125 -9.097656 21.472656 -7.363281 20.390625 -5.875 C 19.304688 -4.382812 18.765625 -3.238281 18.765625 -2.4375 C 18.765625 -1.625 19.171875 -1.21875 19.984375 -1.21875 C 20.878906 -1.21875 22.140625 -1.664062 23.765625 -2.5625 C 25.390625 -3.46875 27.03125 -4.503906 28.6875 -5.671875 C 30.351562 -6.835938 31.640625 -7.78125 32.546875 -8.5 C 34.703125 -10.21875 36.925781 -12.085938 39.21875 -14.109375 C 41.519531 -16.140625 43.476562 -17.875 45.09375 -19.3125 C 45.363281 -19.488281 45.675781 -19.664062 46.03125 -19.84375 C 46.394531 -20.03125 46.710938 -19.941406 46.984375 -19.578125 C 47.347656 -19.222656 47.125 -18.679688 46.3125 -17.953125 C 44.332031 -16.066406 42.171875 -14.132812 39.828125 -12.15625 C 37.492188 -10.175781 35.46875 -8.507812 33.75 -7.15625 Z M 37 -36.59375 C 37 -37.582031 36.414062 -38.078125 35.25 -38.078125 C 33.351562 -38.078125 30.242188 -36.429688 25.921875 -33.140625 C 21.597656 -29.859375 16.242188 -25.203125 9.859375 -19.171875 C 6.523438 -15.835938 3.617188 -12.617188 1.140625 -9.515625 C -1.328125 -6.410156 -2.5625 -4.050781 -2.5625 -2.4375 C -2.5625 -1.53125 -2.113281 -1.078125 -1.21875 -1.078125 C -0.0390625 -1.078125 1.847656 -1.882812 4.453125 -3.5 C 7.066406 -5.125 10.101562 -7.375 13.5625 -10.25 C 17.03125 -13.132812 20.519531 -16.378906 24.03125 -19.984375 C 25.65625 -21.609375 27.476562 -23.5 29.5 -25.65625 C 31.53125 -27.8125 33.285156 -29.898438 34.765625 -31.921875 C 36.253906 -33.953125 37 -35.507812 37 -36.59375 Z M 37 -36.59375 "/></g></g></g><g fill="#f8f3f1" fill-opacity="1"><g transform="translate(379.258604, 422.537603)"><g><path d="M 51.859375 -39.421875 C 48.160156 -36.003906 44.304688 -32.25 40.296875 -28.15625 C 36.296875 -24.0625 31.910156 -19.265625 27.140625 -13.765625 C 22.816406 -8.816406 17.796875 -3.351562 12.078125 2.625 C 6.367188 8.613281 0.40625 14.039062 -5.8125 18.90625 C -14.363281 25.476562 -22.957031 30.425781 -31.59375 33.75 C -40.238281 37.082031 -48.296875 38.75 -55.765625 38.75 C -59.992188 38.75 -64 38.117188 -67.78125 36.859375 C -71.5625 35.597656 -74.710938 33.773438 -77.234375 31.390625 C -79.753906 29.003906 -81.375 26.101562 -82.09375 22.6875 C -82.550781 20.519531 -82.328125 19.347656 -81.421875 19.171875 C -81.066406 18.992188 -80.820312 19.175781 -80.6875 19.71875 C -80.550781 20.257812 -80.4375 20.796875 -80.34375 21.328125 C -79.707031 24.578125 -78.175781 27.328125 -75.75 29.578125 C -73.320312 31.828125 -70.375 33.535156 -66.90625 34.703125 C -63.4375 35.867188 -59.90625 36.453125 -56.3125 36.453125 C -50.820312 36.453125 -45.460938 35.53125 -40.234375 33.6875 C -35.015625 31.84375 -29.992188 29.4375 -25.171875 26.46875 C -20.359375 23.5 -15.972656 20.4375 -12.015625 17.28125 C -9.316406 15.125 -6.4375 12.671875 -3.375 9.921875 C -0.3125 7.179688 2.703125 4.367188 5.671875 1.484375 C 8.640625 -1.390625 11.335938 -4.085938 13.765625 -6.609375 C 16.203125 -9.128906 18.140625 -11.25 19.578125 -12.96875 C 19.753906 -13.144531 19.796875 -13.273438 19.703125 -13.359375 C 19.617188 -13.453125 19.488281 -13.410156 19.3125 -13.234375 C 17.957031 -12.066406 16.46875 -10.757812 14.84375 -9.3125 C 13.226562 -7.875 12.148438 -6.929688 11.609375 -6.484375 C 9.273438 -4.679688 6.800781 -2.992188 4.1875 -1.421875 C 1.570312 0.148438 -0.632812 0.9375 -2.4375 0.9375 C -4.144531 0.9375 -5.332031 0.554688 -6 -0.203125 C -6.675781 -0.960938 -7.015625 -1.929688 -7.015625 -3.109375 C -7.015625 -5.359375 -6.113281 -7.945312 -4.3125 -10.875 C -2.519531 -13.800781 -0.09375 -16.925781 2.96875 -20.25 C 4.769531 -22.144531 6.929688 -24.191406 9.453125 -26.390625 C 11.972656 -28.597656 14.515625 -30.671875 17.078125 -32.609375 C 19.648438 -34.546875 21.832031 -36.007812 23.625 -37 C 24.613281 -37.625 26.03125 -38.070312 27.875 -38.34375 C 29.726562 -38.613281 31.101562 -38.707031 32 -38.625 C 28.039062 -35.375 24.144531 -32.015625 20.3125 -28.546875 C 16.488281 -25.085938 13.113281 -21.847656 10.1875 -18.828125 C 7.269531 -15.816406 5 -13.320312 3.375 -11.34375 C 1.75 -9.363281 0.375 -7.582031 -0.75 -6 C -1.875 -4.425781 -2.4375 -3.238281 -2.4375 -2.4375 C -2.4375 -1.625 -2.03125 -1.21875 -1.21875 -1.21875 C 0.0390625 -1.21875 1.84375 -1.984375 4.1875 -3.515625 C 6.53125 -5.046875 8.691406 -6.53125 10.671875 -7.96875 C 11.835938 -8.863281 13.320312 -10.117188 15.125 -11.734375 C 16.925781 -13.359375 18.789062 -15.070312 20.71875 -16.875 C 22.65625 -18.675781 24.347656 -20.253906 25.796875 -21.609375 C 27.679688 -23.492188 29.726562 -25.492188 31.9375 -27.609375 C 34.144531 -29.722656 36.347656 -31.722656 38.546875 -33.609375 C 40.753906 -35.503906 42.757812 -36.992188 44.5625 -38.078125 C 45.28125 -38.523438 46.445312 -38.882812 48.0625 -39.15625 C 49.6875 -39.425781 50.953125 -39.515625 51.859375 -39.421875 Z M 51.859375 -39.421875 "/></g></g></g><g fill="#f8f3f1" fill-opacity="1"><g transform="translate(416.120937, 422.537603)"><g/></g></g><g fill="#f8f3f1" fill-opacity="1"><g transform="translate(440.830793, 422.537603)"><g><path d="M 227.25 -86.015625 C 227.164062 -85.742188 226.785156 -85.785156 226.109375 -86.140625 C 225.429688 -86.503906 223.96875 -86.6875 221.71875 -86.6875 C 218.300781 -86.6875 214.453125 -85.628906 210.171875 -83.515625 C 205.898438 -81.398438 201.421875 -78.609375 196.734375 -75.140625 C 192.054688 -71.679688 187.351562 -67.832031 182.625 -63.59375 C 177.90625 -59.363281 173.382812 -55.085938 169.0625 -50.765625 C 164.738281 -46.453125 160.820312 -42.445312 157.3125 -38.75 C 150.738281 -31.726562 145 -25.289062 140.09375 -19.4375 C 135.1875 -13.59375 131.472656 -8.820312 128.953125 -5.125 C 127.242188 -2.695312 125.914062 -0.945312 124.96875 0.125 C 124.019531 1.207031 123.050781 1.75 122.0625 1.75 C 121.257812 1.75 120.675781 1.1875 120.3125 0.0625 C 119.945312 -1.0625 120.265625 -2.789062 121.265625 -5.125 C 122.160156 -7.195312 123.773438 -9.832031 126.109375 -13.03125 C 128.453125 -16.226562 131.222656 -19.71875 134.421875 -23.5 C 137.617188 -27.28125 141.015625 -31.082031 144.609375 -34.90625 C 148.210938 -38.726562 151.726562 -42.257812 155.15625 -45.5 C 165.59375 -55.40625 175.289062 -63.578125 184.25 -70.015625 C 193.207031 -76.453125 201.195312 -81.15625 208.21875 -84.125 C 198.5 -81.332031 189.609375 -77.570312 181.546875 -72.84375 C 173.492188 -68.125 165.726562 -63.109375 158.25 -57.796875 C 150.332031 -52.210938 143.039062 -46.804688 136.375 -41.578125 C 129.71875 -36.359375 123.257812 -31.09375 117 -25.78125 C 110.75 -20.476562 104.15625 -14.898438 97.21875 -9.046875 C 96.59375 -8.054688 95.914062 -7.019531 95.1875 -5.9375 C 94.46875 -4.863281 93.75 -3.875 93.03125 -2.96875 C 91.050781 -0.539062 89.429688 1.050781 88.171875 1.8125 C 86.910156 2.582031 86.007812 2.789062 85.46875 2.4375 C 84.84375 2.070312 84.707031 1.328125 85.0625 0.203125 C 85.425781 -0.921875 86.191406 -2.066406 87.359375 -3.234375 C 89.078125 -5.035156 90.519531 -6.410156 91.6875 -7.359375 C 92.851562 -8.304688 94.113281 -9.316406 95.46875 -10.390625 C 97.351562 -13.179688 99.578125 -16.625 102.140625 -20.71875 C 104.710938 -24.820312 107.328125 -28.941406 109.984375 -33.078125 C 112.640625 -37.222656 115.046875 -40.828125 117.203125 -43.890625 C 120.171875 -48.117188 123.566406 -52.457031 127.390625 -56.90625 C 131.222656 -61.363281 135.457031 -65.53125 140.09375 -69.40625 C 144.726562 -73.28125 149.703125 -76.34375 155.015625 -78.59375 C 151.867188 -77.957031 148.066406 -76.691406 143.609375 -74.796875 C 139.148438 -72.910156 134.128906 -69.988281 128.546875 -66.03125 C 124.140625 -62.875 119.882812 -59.519531 115.78125 -55.96875 C 111.6875 -52.414062 107.078125 -48.070312 101.953125 -42.9375 C 96.722656 -37.71875 92.21875 -33.191406 88.4375 -29.359375 C 84.664062 -25.535156 81.316406 -22.179688 78.390625 -19.296875 C 75.460938 -16.421875 72.601562 -13.769531 69.8125 -11.34375 C 61.53125 -4.144531 53.269531 1.140625 45.03125 4.515625 C 36.789062 7.898438 28.984375 9.59375 21.609375 9.59375 C 14.492188 9.59375 9.269531 8.101562 5.9375 5.125 C 2.601562 2.15625 0.847656 -1.800781 0.671875 -6.75 C 0.398438 -12.601562 1.972656 -18.253906 5.390625 -23.703125 C 8.816406 -29.148438 13.863281 -34.210938 20.53125 -38.890625 C 24.757812 -41.953125 29.210938 -44.3125 33.890625 -45.96875 C 38.578125 -47.632812 42.851562 -48.785156 46.71875 -49.421875 C 46.09375 -49.867188 45.460938 -50.703125 44.828125 -51.921875 C 44.203125 -53.140625 43.796875 -54.644531 43.609375 -56.4375 C 43.335938 -62.5625 45.632812 -68.078125 50.5 -72.984375 C 55.363281 -77.890625 62.429688 -81.757812 71.703125 -84.59375 C 80.972656 -87.425781 91.910156 -88.84375 104.515625 -88.84375 C 111.984375 -88.84375 118.976562 -88.460938 125.5 -87.703125 C 132.03125 -86.941406 137.859375 -86.0625 142.984375 -85.0625 C 148.117188 -84.070312 152.265625 -83.128906 155.421875 -82.234375 C 157.222656 -81.785156 159.132812 -81.195312 161.15625 -80.46875 C 163.1875 -79.75 164.738281 -79.125 165.8125 -78.59375 C 166.269531 -78.320312 166.695312 -78.003906 167.09375 -77.640625 C 167.5 -77.285156 167.566406 -76.972656 167.296875 -76.703125 C 167.210938 -76.515625 166.492188 -76.738281 165.140625 -77.375 C 164.515625 -77.726562 163.769531 -78.0625 162.90625 -78.375 C 162.050781 -78.695312 161.222656 -78.90625 160.421875 -79 C 159.609375 -79.175781 158.476562 -78.992188 157.03125 -78.453125 C 155.59375 -77.910156 153.882812 -76.832031 151.90625 -75.21875 C 147.769531 -71.789062 143.453125 -67.128906 138.953125 -61.234375 C 134.453125 -55.335938 129.8125 -49.285156 125.03125 -43.078125 C 121.613281 -38.660156 118.148438 -34.269531 114.640625 -29.90625 C 111.128906 -25.539062 107.53125 -21.378906 103.84375 -17.421875 C 108.164062 -20.753906 113.046875 -24.78125 118.484375 -29.5 C 123.929688 -34.226562 129.941406 -39.316406 136.515625 -44.765625 C 143.085938 -50.210938 150.195312 -55.546875 157.84375 -60.765625 C 161.988281 -63.554688 166.691406 -66.546875 171.953125 -69.734375 C 177.222656 -72.929688 182.71875 -75.925781 188.4375 -78.71875 C 194.15625 -81.507812 199.847656 -83.78125 205.515625 -85.53125 C 211.191406 -87.289062 216.503906 -88.171875 221.453125 -88.171875 C 223.703125 -88.171875 225.273438 -87.878906 226.171875 -87.296875 C 227.078125 -86.710938 227.4375 -86.285156 227.25 -86.015625 Z M 157.71875 -80.078125 C 152.132812 -81.421875 144.75 -82.65625 135.5625 -83.78125 C 126.382812 -84.90625 116.257812 -85.46875 105.1875 -85.46875 C 97.269531 -85.46875 89.6875 -84.789062 82.4375 -83.4375 C 75.1875 -82.09375 68.75 -80.140625 63.125 -77.578125 C 57.5 -75.015625 53.109375 -71.910156 49.953125 -68.265625 C 46.804688 -64.617188 45.367188 -60.453125 45.640625 -55.765625 C 45.734375 -54.503906 46.113281 -53.222656 46.78125 -51.921875 C 47.457031 -50.617188 48.113281 -49.875 48.75 -49.6875 C 51.175781 -49.957031 53.425781 -50.09375 55.5 -50.09375 C 60.894531 -50.09375 65.210938 -48.96875 68.453125 -46.71875 C 71.703125 -44.46875 73.328125 -41.363281 73.328125 -37.40625 C 73.328125 -35.425781 72.960938 -33.78125 72.234375 -32.46875 C 71.515625 -31.164062 70.882812 -30.695312 70.34375 -31.0625 C 69.988281 -31.238281 70.054688 -31.726562 70.546875 -32.53125 C 71.046875 -33.34375 71.296875 -34.878906 71.296875 -37.140625 C 71.296875 -40.734375 69.8125 -43.5 66.84375 -45.4375 C 63.875 -47.375 60.140625 -48.34375 55.640625 -48.34375 C 50.679688 -48.34375 45.296875 -47.238281 39.484375 -45.03125 C 33.679688 -42.820312 27.992188 -39.738281 22.421875 -35.78125 C 18.910156 -33.351562 15.691406 -30.539062 12.765625 -27.34375 C 9.835938 -24.144531 7.472656 -20.789062 5.671875 -17.28125 C 3.867188 -13.769531 2.96875 -10.257812 2.96875 -6.75 C 2.96875 -2.25 4.429688 1.234375 7.359375 3.703125 C 10.285156 6.179688 14.445312 7.421875 19.84375 7.421875 C 24.4375 7.421875 29.410156 6.429688 34.765625 4.453125 C 40.128906 2.472656 45.597656 -0.222656 51.171875 -3.640625 C 56.753906 -7.066406 62.113281 -10.894531 67.25 -15.125 C 70.394531 -17.644531 73.363281 -20.1875 76.15625 -22.75 C 78.945312 -25.3125 81.960938 -28.164062 85.203125 -31.3125 C 88.441406 -34.46875 92.3125 -38.164062 96.8125 -42.40625 C 100.6875 -46 104.128906 -49.164062 107.140625 -51.90625 C 110.160156 -54.65625 113.175781 -57.242188 116.1875 -59.671875 C 119.207031 -62.109375 122.609375 -64.632812 126.390625 -67.25 C 132.773438 -71.75 138.578125 -74.921875 143.796875 -76.765625 C 149.023438 -78.609375 153.664062 -79.710938 157.71875 -80.078125 Z M 157.71875 -80.078125 "/></g></g></g><g fill="#f8f3f1" fill-opacity="1"><g transform="translate(586.795657, 422.537603)"><g><path d="M 51.859375 -38.625 C 47.984375 -35.113281 44.242188 -31.597656 40.640625 -28.078125 C 37.046875 -24.566406 33.851562 -21.347656 31.0625 -18.421875 C 28.269531 -15.503906 26.0625 -13.097656 24.4375 -11.203125 C 22.726562 -9.222656 21.351562 -7.488281 20.3125 -6 C 19.28125 -4.519531 18.765625 -3.332031 18.765625 -2.4375 C 18.765625 -1.625 19.21875 -1.21875 20.125 -1.21875 C 21.019531 -1.21875 22.207031 -1.644531 23.6875 -2.5 C 25.175781 -3.351562 26.726562 -4.34375 28.34375 -5.46875 C 29.96875 -6.59375 31.367188 -7.601562 32.546875 -8.5 C 34.703125 -10.21875 36.925781 -12.085938 39.21875 -14.109375 C 41.519531 -16.140625 43.476562 -17.875 45.09375 -19.3125 C 45.363281 -19.488281 45.675781 -19.664062 46.03125 -19.84375 C 46.394531 -20.03125 46.710938 -19.941406 46.984375 -19.578125 C 47.347656 -19.222656 47.125 -18.679688 46.3125 -17.953125 C 44.332031 -16.066406 42.171875 -14.132812 39.828125 -12.15625 C 37.492188 -10.175781 35.46875 -8.507812 33.75 -7.15625 C 32.40625 -6.070312 30.851562 -4.898438 29.09375 -3.640625 C 27.34375 -2.378906 25.585938 -1.300781 23.828125 -0.40625 C 22.078125 0.488281 20.523438 0.9375 19.171875 0.9375 C 16.023438 0.9375 14.453125 -0.585938 14.453125 -3.640625 C 14.453125 -4.628906 14.742188 -5.84375 15.328125 -7.28125 C 15.910156 -8.726562 16.921875 -10.304688 18.359375 -12.015625 C 14.492188 -8.503906 10.625 -5.46875 6.75 -2.90625 C 2.875 -0.34375 -0.140625 0.9375 -2.296875 0.9375 C -5.359375 0.9375 -6.890625 -0.546875 -6.890625 -3.515625 C -6.972656 -5.941406 -6 -8.929688 -3.96875 -12.484375 C -1.945312 -16.046875 0.585938 -19.359375 3.640625 -22.421875 C 6.703125 -25.566406 10.191406 -28.46875 14.109375 -31.125 C 18.023438 -33.78125 21.875 -35.914062 25.65625 -37.53125 C 29.4375 -39.15625 32.585938 -39.96875 35.109375 -39.96875 C 36.367188 -39.96875 37.398438 -39.765625 38.203125 -39.359375 C 39.015625 -38.953125 39.421875 -38.164062 39.421875 -37 C 39.421875 -36.28125 39.148438 -35.359375 38.609375 -34.234375 C 38.078125 -33.109375 37.046875 -31.78125 35.515625 -30.25 C 35.421875 -30.15625 35.394531 -30.085938 35.4375 -30.046875 C 35.488281 -30.003906 35.554688 -30.023438 35.640625 -30.109375 C 37.710938 -32.179688 39.785156 -33.9375 41.859375 -35.375 C 43.929688 -36.8125 45.503906 -37.710938 46.578125 -38.078125 C 47.304688 -38.347656 48.003906 -38.503906 48.671875 -38.546875 C 49.347656 -38.597656 50.046875 -38.625 50.765625 -38.625 Z M 37.53125 -36.453125 C 37.53125 -37.441406 36.992188 -37.9375 35.921875 -37.9375 C 34.023438 -37.9375 30.800781 -36.335938 26.25 -33.140625 C 21.707031 -29.953125 16.242188 -25.296875 9.859375 -19.171875 C 6.523438 -15.835938 3.617188 -12.59375 1.140625 -9.4375 C -1.328125 -6.289062 -2.5625 -3.957031 -2.5625 -2.4375 C -2.5625 -2.070312 -2.492188 -1.753906 -2.359375 -1.484375 C -2.222656 -1.210938 -1.84375 -1.078125 -1.21875 -1.078125 C -0.0390625 -1.078125 1.847656 -1.882812 4.453125 -3.5 C 7.066406 -5.125 10.101562 -7.375 13.5625 -10.25 C 17.03125 -13.132812 20.519531 -16.378906 24.03125 -19.984375 C 25.65625 -21.609375 27.523438 -23.476562 29.640625 -25.59375 C 31.753906 -27.707031 33.597656 -29.773438 35.171875 -31.796875 C 36.742188 -33.828125 37.53125 -35.378906 37.53125 -36.453125 Z M 37.53125 -36.453125 "/></g></g></g><g fill="#f8f3f1" fill-opacity="1"><g transform="translate(625.81845, 422.537603)"><g><path d="M 21.875 -4.453125 C 19.625 -2.921875 17.507812 -1.640625 15.53125 -0.609375 C 13.550781 0.421875 11.796875 0.9375 10.265625 0.9375 C 7.109375 0.9375 5.53125 -0.679688 5.53125 -3.921875 C 5.53125 -6.710938 6.769531 -9.726562 9.25 -12.96875 C 11.726562 -16.207031 15.082031 -19.671875 19.3125 -23.359375 C 21.019531 -24.890625 22.796875 -26.488281 24.640625 -28.15625 C 26.484375 -29.820312 28.054688 -31.304688 29.359375 -32.609375 C 30.671875 -33.910156 31.28125 -34.789062 31.1875 -35.25 C 31.101562 -35.78125 30.832031 -36.132812 30.375 -36.3125 C 29.925781 -36.5 29.207031 -36.816406 28.21875 -37.265625 C 27.050781 -37.898438 26.242188 -38.488281 25.796875 -39.03125 C 24.347656 -37.40625 22.769531 -35.738281 21.0625 -34.03125 C 19.351562 -32.320312 17.597656 -30.566406 15.796875 -28.765625 C 13.367188 -26.515625 10.710938 -24.0625 7.828125 -21.40625 C 4.953125 -18.75 2.566406 -16.65625 0.671875 -15.125 C 0.398438 -14.851562 0.0859375 -14.671875 -0.265625 -14.578125 C -0.628906 -14.492188 -0.898438 -14.585938 -1.078125 -14.859375 C -1.253906 -15.128906 -1.253906 -15.421875 -1.078125 -15.734375 C -0.898438 -16.046875 -0.675781 -16.289062 -0.40625 -16.46875 C 1.75 -18.363281 4.175781 -20.523438 6.875 -22.953125 C 9.582031 -25.378906 12.109375 -27.722656 14.453125 -29.984375 C 16.703125 -32.046875 18.679688 -33.953125 20.390625 -35.703125 C 22.097656 -37.460938 23.671875 -39.203125 25.109375 -40.921875 C 25.109375 -41.910156 25.601562 -43.078125 26.59375 -44.421875 C 27.59375 -45.773438 28.851562 -47.035156 30.375 -48.203125 C 31.632812 -49.109375 32.804688 -49.804688 33.890625 -50.296875 C 34.972656 -50.796875 35.875 -51.085938 36.59375 -51.171875 C 36.863281 -51.265625 37.335938 -51.351562 38.015625 -51.4375 C 38.691406 -51.53125 39.34375 -51.578125 39.96875 -51.578125 C 41.320312 -51.578125 42 -51.398438 42 -51.046875 C 42 -50.773438 41.4375 -50.234375 40.3125 -49.421875 C 39.1875 -48.609375 37.945312 -47.816406 36.59375 -47.046875 C 35.238281 -46.285156 34.25 -45.726562 33.625 -45.375 C 32.1875 -44.46875 30.835938 -43.5625 29.578125 -42.65625 C 28.316406 -41.757812 27.6875 -40.953125 27.6875 -40.234375 C 27.6875 -39.878906 28.132812 -39.5 29.03125 -39.09375 C 29.925781 -38.6875 30.601562 -38.394531 31.0625 -38.21875 C 33.582031 -37.40625 34.84375 -36.144531 34.84375 -34.4375 C 34.84375 -32.632812 34.164062 -30.71875 32.8125 -28.6875 C 31.457031 -26.664062 29.832031 -24.6875 27.9375 -22.75 C 26.050781 -20.8125 24.34375 -19.125 22.8125 -17.6875 C 20.300781 -15.34375 18.097656 -13.269531 16.203125 -11.46875 C 14.316406 -9.675781 12.742188 -8.015625 11.484375 -6.484375 C 10.035156 -4.773438 9.3125 -3.425781 9.3125 -2.4375 C 9.3125 -1.53125 9.851562 -1.078125 10.9375 -1.078125 C 12.195312 -1.078125 13.925781 -1.726562 16.125 -3.03125 C 18.332031 -4.34375 20.160156 -5.492188 21.609375 -6.484375 C 23.941406 -8.191406 26.457031 -10.191406 29.15625 -12.484375 C 31.863281 -14.785156 34.117188 -16.65625 35.921875 -18.09375 C 36.191406 -18.363281 36.503906 -18.585938 36.859375 -18.765625 C 37.222656 -18.953125 37.539062 -18.910156 37.8125 -18.640625 C 38.164062 -18.273438 38.160156 -17.890625 37.796875 -17.484375 C 37.441406 -17.078125 37.085938 -16.738281 36.734375 -16.46875 C 34.660156 -14.664062 32.296875 -12.660156 29.640625 -10.453125 C 26.984375 -8.253906 24.394531 -6.253906 21.875 -4.453125 Z M 21.875 -4.453125 "/></g></g></g><g fill="#f8f3f1" fill-opacity="1"><g transform="translate(656.739576, 422.537603)"><g><path d="M 36.328125 -36.453125 C 36.328125 -34.390625 35.601562 -32.273438 34.15625 -30.109375 C 32.71875 -27.953125 31.234375 -26.242188 29.703125 -24.984375 C 29.253906 -24.617188 28.691406 -24.210938 28.015625 -23.765625 C 27.335938 -23.316406 26.640625 -23.09375 25.921875 -23.09375 C 24.660156 -23.09375 24.03125 -23.628906 24.03125 -24.703125 C 24.03125 -25.609375 24.570312 -26.488281 25.65625 -27.34375 C 26.738281 -28.195312 27.726562 -28.894531 28.625 -29.4375 C 32.675781 -32.132812 34.703125 -34.472656 34.703125 -36.453125 C 34.703125 -37.628906 34.160156 -38.21875 33.078125 -38.21875 C 32.179688 -38.21875 30.851562 -37.65625 29.09375 -36.53125 C 27.34375 -35.40625 25.410156 -33.984375 23.296875 -32.265625 C 21.179688 -30.554688 19.0625 -28.753906 16.9375 -26.859375 C 14.820312 -24.972656 12.957031 -23.222656 11.34375 -21.609375 C 6.84375 -17.285156 3.554688 -13.546875 1.484375 -10.390625 C -0.585938 -7.242188 -1.578125 -4.859375 -1.484375 -3.234375 C -1.484375 -1.617188 -0.492188 -0.8125 1.484375 -0.8125 C 2.921875 -0.8125 4.492188 -1.144531 6.203125 -1.8125 C 7.921875 -2.488281 9.519531 -3.253906 11 -4.109375 C 12.488281 -4.972656 13.679688 -5.71875 14.578125 -6.34375 C 17.285156 -8.144531 20.144531 -10.28125 23.15625 -12.75 C 26.175781 -15.226562 28.628906 -17.328125 30.515625 -19.046875 C 31.328125 -19.671875 31.957031 -19.847656 32.40625 -19.578125 C 32.851562 -19.222656 32.765625 -18.726562 32.140625 -18.09375 C 30.242188 -16.382812 28.015625 -14.472656 25.453125 -12.359375 C 22.890625 -10.242188 20.390625 -8.285156 17.953125 -6.484375 C 15.253906 -4.503906 12.351562 -2.722656 9.25 -1.140625 C 6.144531 0.429688 3.195312 1.21875 0.40625 1.21875 C -4.1875 1.21875 -6.484375 -0.851562 -6.484375 -5 C -6.484375 -8.144531 -5.378906 -11.453125 -3.171875 -14.921875 C -0.960938 -18.390625 1.800781 -21.648438 5.125 -24.703125 C 8.1875 -27.492188 11.425781 -30.035156 14.84375 -32.328125 C 18.269531 -34.628906 21.535156 -36.476562 24.640625 -37.875 C 27.742188 -39.269531 30.285156 -39.96875 32.265625 -39.96875 C 33.796875 -39.96875 34.851562 -39.628906 35.4375 -38.953125 C 36.03125 -38.273438 36.328125 -37.441406 36.328125 -36.453125 Z M 36.328125 -36.453125 "/></g></g></g><g fill="#f8f3f1" fill-opacity="1"><g transform="translate(683.609823, 422.537603)"><g><path d="M 43.34375 -39.703125 C 44.875 -39.703125 45.976562 -39.335938 46.65625 -38.609375 C 47.332031 -37.890625 47.671875 -37.082031 47.671875 -36.1875 C 47.671875 -34.5625 46.945312 -32.757812 45.5 -30.78125 C 44.0625 -28.800781 42.375 -26.820312 40.4375 -24.84375 C 38.5 -22.863281 36.722656 -21.15625 35.109375 -19.71875 C 32.953125 -17.738281 30.972656 -15.867188 29.171875 -14.109375 C 27.367188 -12.359375 25.75 -10.71875 24.3125 -9.1875 C 22.59375 -7.382812 21.347656 -5.960938 20.578125 -4.921875 C 19.816406 -3.890625 19.4375 -3.015625 19.4375 -2.296875 C 19.4375 -1.390625 19.9375 -0.9375 20.9375 -0.9375 C 22.007812 -0.9375 23.582031 -1.453125 25.65625 -2.484375 C 27.726562 -3.523438 29.890625 -4.859375 32.140625 -6.484375 C 34.472656 -8.191406 37.015625 -10.191406 39.765625 -12.484375 C 42.515625 -14.785156 44.785156 -16.65625 46.578125 -18.09375 C 46.847656 -18.363281 47.164062 -18.585938 47.53125 -18.765625 C 47.894531 -18.953125 48.207031 -18.910156 48.46875 -18.640625 C 48.832031 -18.273438 48.832031 -17.890625 48.46875 -17.484375 C 48.113281 -17.078125 47.753906 -16.738281 47.390625 -16.46875 C 45.328125 -14.664062 42.96875 -12.660156 40.3125 -10.453125 C 37.65625 -8.253906 35.066406 -6.253906 32.546875 -4.453125 C 30.109375 -2.742188 27.742188 -1.367188 25.453125 -0.328125 C 23.160156 0.703125 21.203125 1.21875 19.578125 1.21875 C 16.335938 1.21875 14.71875 -0.398438 14.71875 -3.640625 C 14.71875 -5.804688 15.707031 -8.285156 17.6875 -11.078125 C 19.394531 -13.410156 21.054688 -15.410156 22.671875 -17.078125 C 24.296875 -18.742188 26.503906 -20.835938 29.296875 -23.359375 C 30.285156 -24.347656 31.546875 -25.472656 33.078125 -26.734375 C 34.609375 -27.992188 36.140625 -29.296875 37.671875 -30.640625 C 39.203125 -31.992188 40.484375 -33.210938 41.515625 -34.296875 C 42.554688 -35.378906 43.078125 -36.234375 43.078125 -36.859375 C 43.078125 -37.398438 42.757812 -37.671875 42.125 -37.671875 C 40.957031 -37.671875 39.019531 -36.992188 36.3125 -35.640625 C 33.613281 -34.296875 30.578125 -32.539062 27.203125 -30.375 C 23.828125 -28.21875 20.585938 -25.988281 17.484375 -23.6875 C 14.378906 -21.394531 11.835938 -19.304688 9.859375 -17.421875 C 7.609375 -15.347656 5.648438 -13.410156 3.984375 -11.609375 C 2.316406 -9.804688 0.609375 -7.890625 -1.140625 -5.859375 C -2.898438 -3.835938 -4.953125 -1.300781 -7.296875 1.75 C -7.835938 1.75 -8.265625 1.429688 -8.578125 0.796875 C -8.890625 0.171875 -9.046875 -0.539062 -9.046875 -1.34375 C -9.046875 -2.332031 -8.210938 -4.175781 -6.546875 -6.875 C -4.878906 -9.582031 -2.609375 -12.757812 0.265625 -16.40625 C 3.148438 -20.050781 6.347656 -23.71875 9.859375 -27.40625 C 13.273438 -31.101562 17.007812 -34.910156 21.0625 -38.828125 C 25.113281 -42.742188 29.1875 -46.5 33.28125 -50.09375 C 37.375 -53.695312 41.242188 -56.9375 44.890625 -59.8125 C 48.535156 -62.695312 51.710938 -64.992188 54.421875 -66.703125 C 55.410156 -67.335938 56.644531 -68.015625 58.125 -68.734375 C 59.613281 -69.453125 60.941406 -69.988281 62.109375 -70.34375 C 63.460938 -70.800781 64.789062 -71.070312 66.09375 -71.15625 C 67.40625 -71.25 68.914062 -71.296875 70.625 -71.296875 C 70.976562 -71.296875 70.976562 -71.207031 70.625 -71.03125 C 68.644531 -70.570312 66.660156 -69.734375 64.671875 -68.515625 C 62.691406 -67.304688 61.070312 -66.207031 59.8125 -65.21875 C 56.757812 -62.96875 53.179688 -60.15625 49.078125 -56.78125 C 44.984375 -53.40625 40.726562 -49.734375 36.3125 -45.765625 C 31.90625 -41.804688 27.628906 -37.800781 23.484375 -33.75 C 19.347656 -29.707031 15.707031 -25.929688 12.5625 -22.421875 C 12.375 -22.234375 12.300781 -22.09375 12.34375 -22 C 12.394531 -21.914062 12.46875 -21.921875 12.5625 -22.015625 C 14.269531 -23.453125 16.472656 -25.160156 19.171875 -27.140625 C 21.867188 -29.117188 24.75 -31.078125 27.8125 -33.015625 C 30.875 -34.953125 33.773438 -36.550781 36.515625 -37.8125 C 39.265625 -39.070312 41.539062 -39.703125 43.34375 -39.703125 Z M 43.34375 -39.703125 "/></g></g></g><g fill="#f8f3f1" fill-opacity="1"><g transform="translate(725.333202, 422.537603)"><g><path d="M 12.6875 -22.8125 C 10.4375 -20.75 8.226562 -18.5 6.0625 -16.0625 C 3.90625 -13.632812 2.109375 -11.296875 0.671875 -9.046875 C -0.765625 -6.796875 -1.484375 -4.953125 -1.484375 -3.515625 C -1.484375 -1.710938 -0.445312 -0.8125 1.625 -0.8125 C 2.96875 -0.8125 4.675781 -1.210938 6.75 -2.015625 C 8.820312 -2.828125 10.984375 -3.957031 13.234375 -5.40625 C 16.472656 -7.46875 19.644531 -9.78125 22.75 -12.34375 C 25.851562 -14.914062 28.265625 -16.96875 29.984375 -18.5 C 30.429688 -18.945312 30.878906 -19.304688 31.328125 -19.578125 C 31.773438 -19.847656 32.132812 -19.847656 32.40625 -19.578125 C 32.675781 -19.304688 32.695312 -18.988281 32.46875 -18.625 C 32.25 -18.269531 32.003906 -17.957031 31.734375 -17.6875 C 29.484375 -15.613281 27.050781 -13.519531 24.4375 -11.40625 C 21.832031 -9.289062 19.039062 -7.195312 16.0625 -5.125 C 13.8125 -3.59375 11.289062 -2.148438 8.5 -0.796875 C 5.71875 0.546875 3.019531 1.21875 0.40625 1.21875 C -1.21875 1.21875 -2.769531 0.8125 -4.25 0 C -5.738281 -0.8125 -6.484375 -2.519531 -6.484375 -5.125 C -6.484375 -6.925781 -5.804688 -9.445312 -4.453125 -12.6875 C -3.109375 -15.925781 -0.273438 -19.617188 4.046875 -23.765625 C 7.109375 -26.648438 10.4375 -29.304688 14.03125 -31.734375 C 17.632812 -34.160156 21.125 -36.140625 24.5 -37.671875 C 27.882812 -39.203125 30.65625 -39.96875 32.8125 -39.96875 C 34.164062 -39.96875 35.175781 -39.648438 35.84375 -39.015625 C 36.519531 -38.390625 36.859375 -37.582031 36.859375 -36.59375 C 36.859375 -35.15625 36.140625 -33.601562 34.703125 -31.9375 C 33.265625 -30.269531 31.597656 -28.804688 29.703125 -27.546875 C 27.546875 -26.109375 25.113281 -24.867188 22.40625 -23.828125 C 19.707031 -22.796875 17.328125 -22.28125 15.265625 -22.28125 C 14.265625 -22.28125 13.40625 -22.457031 12.6875 -22.8125 Z M 13.640625 -23.765625 C 13.992188 -23.585938 14.351562 -23.5 14.71875 -23.5 C 16.070312 -23.5 18.03125 -24.035156 20.59375 -25.109375 C 23.15625 -26.191406 25.695312 -27.769531 28.21875 -29.84375 C 30.113281 -31.375 31.644531 -32.835938 32.8125 -34.234375 C 33.976562 -35.628906 34.5625 -36.726562 34.5625 -37.53125 C 34.5625 -38.070312 34.25 -38.34375 33.625 -38.34375 C 32.71875 -38.34375 31.050781 -37.554688 28.625 -35.984375 C 26.195312 -34.410156 23.609375 -32.5 20.859375 -30.25 C 18.117188 -28 15.710938 -25.835938 13.640625 -23.765625 Z M 13.640625 -23.765625 "/></g></g></g><g fill="#f8f3f1" fill-opacity="1"><g transform="translate(750.043034, 422.537603)"><g><path d="M 38.625 -50.359375 C 39.695312 -50.359375 40.234375 -49.910156 40.234375 -49.015625 C 40.234375 -48.390625 39.691406 -47.421875 38.609375 -46.109375 C 37.535156 -44.804688 35.785156 -43.253906 33.359375 -41.453125 C 31.734375 -40.285156 30.039062 -39.140625 28.28125 -38.015625 C 26.53125 -36.890625 25.160156 -35.832031 24.171875 -34.84375 C 23.453125 -33.9375 22.890625 -32.832031 22.484375 -31.53125 C 22.078125 -30.226562 21.785156 -29.035156 21.609375 -27.953125 C 21.242188 -25.878906 20.769531 -23.398438 20.1875 -20.515625 C 19.601562 -17.640625 18.453125 -14.691406 16.734375 -11.671875 C 15.023438 -8.660156 12.148438 -5.804688 8.109375 -3.109375 C 10.535156 -4.273438 12.941406 -5.597656 15.328125 -7.078125 C 17.710938 -8.566406 19.984375 -10.078125 22.140625 -11.609375 C 23.941406 -12.867188 25.539062 -14.0625 26.9375 -15.1875 C 28.332031 -16.3125 29.84375 -17.597656 31.46875 -19.046875 C 32.1875 -19.765625 32.722656 -19.851562 33.078125 -19.3125 C 33.523438 -18.945312 33.4375 -18.453125 32.8125 -17.828125 C 31.28125 -16.378906 29.632812 -14.976562 27.875 -13.625 C 26.125 -12.28125 24.4375 -11.023438 22.8125 -9.859375 C 20.300781 -8.054688 17.828125 -6.457031 15.390625 -5.0625 C 12.960938 -3.664062 10.847656 -2.609375 9.046875 -1.890625 C 6.523438 -0.804688 4.09375 -0.0390625 1.75 0.40625 C -0.582031 0.851562 -2.695312 1.078125 -4.59375 1.078125 C -6.664062 1.078125 -8.332031 0.695312 -9.59375 -0.0625 C -10.851562 -0.832031 -11.484375 -2.117188 -11.484375 -3.921875 C -11.484375 -6.078125 -9.992188 -8.773438 -7.015625 -12.015625 C -6.210938 -12.921875 -5.269531 -13.820312 -4.1875 -14.71875 C -3.101562 -15.613281 -2.113281 -16.425781 -1.21875 -17.15625 C 0.132812 -18.226562 1.394531 -19.078125 2.5625 -19.703125 C 3.738281 -20.335938 4.773438 -20.65625 5.671875 -20.65625 C 8.367188 -23 11.289062 -25.566406 14.4375 -28.359375 C 17.59375 -31.148438 20.023438 -33.535156 21.734375 -35.515625 C 23.359375 -37.492188 24.890625 -39.269531 26.328125 -40.84375 C 27.765625 -42.414062 29.207031 -43.832031 30.65625 -45.09375 C 32.457031 -46.71875 34.007812 -48 35.3125 -48.9375 C 36.613281 -49.882812 37.71875 -50.359375 38.625 -50.359375 Z M 20.9375 -32.546875 C 19.132812 -30.566406 16.945312 -28.425781 14.375 -26.125 C 11.8125 -23.832031 9.179688 -21.5625 6.484375 -19.3125 C 6.304688 -18.675781 5.765625 -17.882812 4.859375 -16.9375 C 3.960938 -16 2.65625 -14.988281 0.9375 -13.90625 C 0.0390625 -13.28125 -1.078125 -12.5625 -2.421875 -11.75 C -3.773438 -10.9375 -4.945312 -10.171875 -5.9375 -9.453125 C -7.019531 -8.640625 -7.941406 -7.757812 -8.703125 -6.8125 C -9.472656 -5.875 -9.859375 -4.910156 -9.859375 -3.921875 C -9.859375 -2.742188 -9.453125 -2 -8.640625 -1.6875 C -7.828125 -1.375 -7.019531 -1.21875 -6.21875 -1.21875 C -4.144531 -1.21875 -1.757812 -2.023438 0.9375 -3.640625 C 3.644531 -5.265625 6.300781 -7.5625 8.90625 -10.53125 C 10.53125 -12.238281 12.148438 -14.421875 13.765625 -17.078125 C 15.390625 -19.734375 16.851562 -22.457031 18.15625 -25.25 C 19.46875 -28.039062 20.394531 -30.472656 20.9375 -32.546875 Z M 20.9375 -32.546875 "/></g></g></g><g fill="#f8f3f1" fill-opacity="1"><g transform="translate(775.563034, 422.537603)"><g><path d="M 51.859375 -38.625 C 47.984375 -35.113281 44.242188 -31.597656 40.640625 -28.078125 C 37.046875 -24.566406 33.851562 -21.347656 31.0625 -18.421875 C 28.269531 -15.503906 26.0625 -13.097656 24.4375 -11.203125 C 22.726562 -9.222656 21.351562 -7.488281 20.3125 -6 C 19.28125 -4.519531 18.765625 -3.332031 18.765625 -2.4375 C 18.765625 -1.625 19.21875 -1.21875 20.125 -1.21875 C 21.019531 -1.21875 22.207031 -1.644531 23.6875 -2.5 C 25.175781 -3.351562 26.726562 -4.34375 28.34375 -5.46875 C 29.96875 -6.59375 31.367188 -7.601562 32.546875 -8.5 C 34.703125 -10.21875 36.925781 -12.085938 39.21875 -14.109375 C 41.519531 -16.140625 43.476562 -17.875 45.09375 -19.3125 C 45.363281 -19.488281 45.675781 -19.664062 46.03125 -19.84375 C 46.394531 -20.03125 46.710938 -19.941406 46.984375 -19.578125 C 47.347656 -19.222656 47.125 -18.679688 46.3125 -17.953125 C 44.332031 -16.066406 42.171875 -14.132812 39.828125 -12.15625 C 37.492188 -10.175781 35.46875 -8.507812 33.75 -7.15625 C 32.40625 -6.070312 30.851562 -4.898438 29.09375 -3.640625 C 27.34375 -2.378906 25.585938 -1.300781 23.828125 -0.40625 C 22.078125 0.488281 20.523438 0.9375 19.171875 0.9375 C 16.023438 0.9375 14.453125 -0.585938 14.453125 -3.640625 C 14.453125 -4.628906 14.742188 -5.84375 15.328125 -7.28125 C 15.910156 -8.726562 16.921875 -10.304688 18.359375 -12.015625 C 14.492188 -8.503906 10.625 -5.46875 6.75 -2.90625 C 2.875 -0.34375 -0.140625 0.9375 -2.296875 0.9375 C -5.359375 0.9375 -6.890625 -0.546875 -6.890625 -3.515625 C -6.972656 -5.941406 -6 -8.929688 -3.96875 -12.484375 C -1.945312 -16.046875 0.585938 -19.359375 3.640625 -22.421875 C 6.703125 -25.566406 10.191406 -28.46875 14.109375 -31.125 C 18.023438 -33.78125 21.875 -35.914062 25.65625 -37.53125 C 29.4375 -39.15625 32.585938 -39.96875 35.109375 -39.96875 C 36.367188 -39.96875 37.398438 -39.765625 38.203125 -39.359375 C 39.015625 -38.953125 39.421875 -38.164062 39.421875 -37 C 39.421875 -36.28125 39.148438 -35.359375 38.609375 -34.234375 C 38.078125 -33.109375 37.046875 -31.78125 35.515625 -30.25 C 35.421875 -30.15625 35.394531 -30.085938 35.4375 -30.046875 C 35.488281 -30.003906 35.554688 -30.023438 35.640625 -30.109375 C 37.710938 -32.179688 39.785156 -33.9375 41.859375 -35.375 C 43.929688 -36.8125 45.503906 -37.710938 46.578125 -38.078125 C 47.304688 -38.347656 48.003906 -38.503906 48.671875 -38.546875 C 49.347656 -38.597656 50.046875 -38.625 50.765625 -38.625 Z M 37.53125 -36.453125 C 37.53125 -37.441406 36.992188 -37.9375 35.921875 -37.9375 C 34.023438 -37.9375 30.800781 -36.335938 26.25 -33.140625 C 21.707031 -29.953125 16.242188 -25.296875 9.859375 -19.171875 C 6.523438 -15.835938 3.617188 -12.59375 1.140625 -9.4375 C -1.328125 -6.289062 -2.5625 -3.957031 -2.5625 -2.4375 C -2.5625 -2.070312 -2.492188 -1.753906 -2.359375 -1.484375 C -2.222656 -1.210938 -1.84375 -1.078125 -1.21875 -1.078125 C -0.0390625 -1.078125 1.847656 -1.882812 4.453125 -3.5 C 7.066406 -5.125 10.101562 -7.375 13.5625 -10.25 C 17.03125 -13.132812 20.519531 -16.378906 24.03125 -19.984375 C 25.65625 -21.609375 27.523438 -23.476562 29.640625 -25.59375 C 31.753906 -27.707031 33.597656 -29.773438 35.171875 -31.796875 C 36.742188 -33.828125 37.53125 -35.378906 37.53125 -36.453125 Z M 37.53125 -36.453125 "/></g></g></g><g fill="#f8f3f1" fill-opacity="1"><g transform="translate(814.585827, 422.537603)"><g><path d="M 48.46875 -18.640625 C 48.832031 -18.273438 48.832031 -17.890625 48.46875 -17.484375 C 48.113281 -17.078125 47.753906 -16.738281 47.390625 -16.46875 C 45.328125 -14.664062 42.96875 -12.660156 40.3125 -10.453125 C 37.65625 -8.253906 35.066406 -6.253906 32.546875 -4.453125 C 30.023438 -2.742188 27.640625 -1.367188 25.390625 -0.328125 C 23.140625 0.703125 21.203125 1.21875 19.578125 1.21875 C 16.335938 1.21875 14.71875 -0.398438 14.71875 -3.640625 C 14.71875 -5.804688 15.707031 -8.285156 17.6875 -11.078125 C 19.394531 -13.410156 21.054688 -15.410156 22.671875 -17.078125 C 24.296875 -18.742188 26.503906 -20.835938 29.296875 -23.359375 C 30.742188 -24.617188 32.546875 -26.171875 34.703125 -28.015625 C 36.859375 -29.859375 38.789062 -31.613281 40.5 -33.28125 C 42.21875 -34.945312 43.078125 -36.140625 43.078125 -36.859375 C 43.078125 -37.398438 42.757812 -37.671875 42.125 -37.671875 C 40.957031 -37.671875 39.066406 -37.015625 36.453125 -35.703125 C 33.847656 -34.398438 30.898438 -32.710938 27.609375 -30.640625 C 24.328125 -28.578125 21.085938 -26.375 17.890625 -24.03125 C 14.691406 -21.695312 12.015625 -19.492188 9.859375 -17.421875 C 7.609375 -15.347656 5.648438 -13.410156 3.984375 -11.609375 C 2.316406 -9.804688 0.609375 -7.890625 -1.140625 -5.859375 C -2.898438 -3.835938 -4.953125 -1.300781 -7.296875 1.75 C -7.835938 1.75 -8.265625 1.429688 -8.578125 0.796875 C -8.890625 0.171875 -9.046875 -0.539062 -9.046875 -1.34375 C -9.046875 -2.332031 -8.28125 -4.085938 -6.75 -6.609375 C -5.21875 -9.128906 -3.101562 -12.097656 -0.40625 -15.515625 C 2.289062 -18.941406 5.394531 -22.457031 8.90625 -26.0625 C 11.070312 -28.40625 13.28125 -30.539062 15.53125 -32.46875 C 17.78125 -34.40625 19.710938 -35.914062 21.328125 -37 C 22.503906 -37.71875 23.945312 -38.253906 25.65625 -38.609375 C 27.363281 -38.972656 29.070312 -39.15625 30.78125 -39.15625 C 28.445312 -37.539062 25.566406 -35.203125 22.140625 -32.140625 C 18.722656 -29.078125 15.53125 -25.835938 12.5625 -22.421875 C 12.375 -22.234375 12.300781 -22.09375 12.34375 -22 C 12.394531 -21.914062 12.46875 -21.921875 12.5625 -22.015625 C 14.269531 -23.453125 16.472656 -25.160156 19.171875 -27.140625 C 21.867188 -29.117188 24.75 -31.078125 27.8125 -33.015625 C 30.875 -34.953125 33.773438 -36.550781 36.515625 -37.8125 C 39.265625 -39.070312 41.539062 -39.703125 43.34375 -39.703125 C 44.875 -39.703125 45.976562 -39.316406 46.65625 -38.546875 C 47.332031 -37.785156 47.671875 -36.910156 47.671875 -35.921875 C 47.671875 -34.390625 46.945312 -32.632812 45.5 -30.65625 C 44.0625 -28.675781 42.375 -26.71875 40.4375 -24.78125 C 38.5 -22.84375 36.722656 -21.15625 35.109375 -19.71875 C 32.953125 -17.738281 30.972656 -15.867188 29.171875 -14.109375 C 27.367188 -12.359375 25.75 -10.71875 24.3125 -9.1875 C 22.59375 -7.382812 21.347656 -5.960938 20.578125 -4.921875 C 19.816406 -3.890625 19.4375 -3.015625 19.4375 -2.296875 C 19.4375 -1.390625 19.9375 -0.9375 20.9375 -0.9375 C 22.007812 -0.9375 23.601562 -1.476562 25.71875 -2.5625 C 27.832031 -3.644531 30.015625 -4.953125 32.265625 -6.484375 C 34.609375 -8.191406 37.128906 -10.191406 39.828125 -12.484375 C 42.535156 -14.785156 44.785156 -16.65625 46.578125 -18.09375 C 46.847656 -18.363281 47.164062 -18.585938 47.53125 -18.765625 C 47.894531 -18.953125 48.207031 -18.910156 48.46875 -18.640625 Z M 48.46875 -18.640625 "/></g></g></g><g fill="#f8f3f1" fill-opacity="1"><g transform="translate(856.309161, 422.537603)"><g><path d="M 40.515625 -50.359375 C 40.515625 -49.367188 40.128906 -48.488281 39.359375 -47.71875 C 38.597656 -46.957031 37.722656 -46.578125 36.734375 -46.578125 C 35.742188 -46.578125 34.84375 -46.957031 34.03125 -47.71875 C 33.21875 -48.488281 32.8125 -49.367188 32.8125 -50.359375 C 32.8125 -51.359375 33.21875 -52.238281 34.03125 -53 C 34.84375 -53.757812 35.742188 -54.140625 36.734375 -54.140625 C 37.722656 -54.140625 38.597656 -53.757812 39.359375 -53 C 40.128906 -52.238281 40.515625 -51.359375 40.515625 -50.359375 Z M 31.1875 -39.15625 C 27.320312 -35.644531 23.539062 -32.109375 19.84375 -28.546875 C 16.15625 -24.992188 12.847656 -21.6875 9.921875 -18.625 C 6.992188 -15.570312 4.722656 -13.097656 3.109375 -11.203125 C 1.484375 -9.222656 0.175781 -7.488281 -0.8125 -6 C -1.800781 -4.519531 -2.296875 -3.285156 -2.296875 -2.296875 C -2.296875 -1.390625 -1.800781 -0.9375 -0.8125 -0.9375 C 0.175781 -0.9375 1.390625 -1.296875 2.828125 -2.015625 C 4.273438 -2.742188 5.785156 -3.601562 7.359375 -4.59375 C 8.929688 -5.582031 10.257812 -6.484375 11.34375 -7.296875 C 12.875 -8.460938 14.539062 -9.785156 16.34375 -11.265625 C 18.144531 -12.753906 19.851562 -14.171875 21.46875 -15.515625 C 23.09375 -16.867188 24.351562 -17.953125 25.25 -18.765625 C 26.144531 -19.671875 26.820312 -19.851562 27.28125 -19.3125 C 27.632812 -18.945312 27.453125 -18.453125 26.734375 -17.828125 C 25.648438 -16.835938 24.1875 -15.550781 22.34375 -13.96875 C 20.5 -12.394531 18.675781 -10.863281 16.875 -9.375 C 15.070312 -7.894531 13.632812 -6.75 12.5625 -5.9375 C 10.394531 -4.320312 7.9375 -2.722656 5.1875 -1.140625 C 2.445312 0.429688 -0.046875 1.21875 -2.296875 1.21875 C -5.441406 1.21875 -7.015625 -0.222656 -7.015625 -3.109375 C -7.015625 -5.179688 -6.113281 -7.703125 -4.3125 -10.671875 C -2.519531 -13.640625 -0.09375 -16.742188 2.96875 -19.984375 C 4.769531 -21.785156 6.953125 -23.898438 9.515625 -26.328125 C 12.085938 -28.765625 14.65625 -31.039062 17.21875 -33.15625 C 19.78125 -35.269531 21.960938 -36.820312 23.765625 -37.8125 C 24.753906 -38.351562 26.015625 -38.734375 27.546875 -38.953125 C 29.078125 -39.179688 30.289062 -39.25 31.1875 -39.15625 Z M 31.1875 -39.15625 "/></g></g></g><g fill="#f8f3f1" fill-opacity="1"><g transform="translate(482.276862, 514.539438)"><g><path d="M 12.898438 -5.164062 L 12.214844 -2.265625 L 11.53125 -5.164062 L 9.464844 -12.808594 L 7.574219 -12.808594 L 5.488281 -5.164062 L 4.785156 -2.285156 L 4.15625 -5.164062 L 2.25 -12.808594 L 0.539062 -12.808594 L 3.957031 0 L 5.558594 0 L 7.773438 -8.3125 L 8.511719 -11.207031 L 9.246094 -8.3125 L 11.476562 0 L 13.078125 0 L 16.640625 -12.808594 L 14.933594 -12.808594 Z M 12.898438 -5.164062 "/></g></g></g><g fill="#f8f3f1" fill-opacity="1"><g transform="translate(499.800257, 514.539438)"><g><path d="M 7.195312 0.304688 C 10.792969 0.304688 13.257812 -2.445312 13.257812 -6.40625 C 13.257812 -10.289062 10.792969 -13.042969 7.195312 -13.042969 C 3.617188 -13.042969 1.152344 -10.289062 1.152344 -6.40625 C 1.152344 -2.484375 3.617188 0.304688 7.195312 0.304688 Z M 7.214844 -1.1875 C 4.660156 -1.1875 2.859375 -3.21875 2.859375 -6.40625 C 2.859375 -9.554688 4.660156 -11.550781 7.214844 -11.550781 C 9.75 -11.550781 11.550781 -9.554688 11.550781 -6.40625 C 11.550781 -3.183594 9.789062 -1.1875 7.214844 -1.1875 Z M 7.214844 -1.1875 "/></g></g></g><g fill="#f8f3f1" fill-opacity="1"><g transform="translate(515.092743, 514.539438)"><g><path d="M 11.066406 -4.085938 C 10.9375 -5.269531 10.21875 -6.007812 9.105469 -6.226562 C 10.453125 -6.601562 11.386719 -7.773438 11.386719 -9.425781 C 11.386719 -11.476562 9.914062 -12.808594 7.464844 -12.808594 L 1.527344 -12.808594 L 1.527344 0 L 3.203125 0 L 3.203125 -5.523438 L 7.160156 -5.523438 C 8.652344 -5.523438 9.300781 -4.929688 9.464844 -3.417969 L 9.839844 0 L 11.53125 0 Z M 3.203125 -6.980469 L 3.203125 -11.351562 L 7.179688 -11.351562 C 8.796875 -11.351562 9.679688 -10.613281 9.679688 -9.265625 C 9.679688 -7.808594 8.636719 -6.980469 6.890625 -6.980469 Z M 3.203125 -6.980469 "/></g></g></g><g fill="#f8f3f1" fill-opacity="1"><g transform="translate(528.855981, 514.539438)"><g><path d="M 11.945312 -12.808594 L 9.714844 -12.808594 L 3.203125 -6.53125 L 3.203125 -12.808594 L 1.527344 -12.808594 L 1.527344 0 L 3.203125 0 L 3.203125 -4.480469 L 5.363281 -6.585938 L 7 -4.355469 L 10.21875 0 L 12.304688 0 L 6.53125 -7.644531 Z M 11.945312 -12.808594 "/></g></g></g><g fill="#f8f3f1" fill-opacity="1"><g transform="translate(810.572351, 514.539438)"><g><path d="M 6.945312 0.304688 C 9.949219 0.304688 11.929688 -1.582031 12.359375 -4.660156 L 10.703125 -4.660156 C 10.398438 -2.355469 9.011719 -1.1875 7 -1.1875 C 4.390625 -1.1875 2.859375 -3.203125 2.859375 -6.40625 C 2.859375 -9.605469 4.40625 -11.550781 7 -11.550781 C 8.761719 -11.550781 10.09375 -10.632812 10.488281 -8.941406 L 12.199219 -8.941406 C 11.800781 -11.460938 9.605469 -13.042969 6.925781 -13.042969 C 3.398438 -13.042969 1.152344 -10.328125 1.152344 -6.40625 C 1.152344 -2.519531 3.347656 0.304688 6.945312 0.304688 Z M 6.945312 0.304688 "/></g></g></g><g fill="#f8f3f1" fill-opacity="1"><g transform="translate(824.62345, 514.539438)"><g><path d="M 7.195312 0.304688 C 10.792969 0.304688 13.257812 -2.445312 13.257812 -6.40625 C 13.257812 -10.289062 10.792969 -13.042969 7.195312 -13.042969 C 3.617188 -13.042969 1.152344 -10.289062 1.152344 -6.40625 C 1.152344 -2.484375 3.617188 0.304688 7.195312 0.304688 Z M 7.214844 -1.1875 C 4.660156 -1.1875 2.859375 -3.21875 2.859375 -6.40625 C 2.859375 -9.554688 4.660156 -11.550781 7.214844 -11.550781 C 9.75 -11.550781 11.550781 -9.554688 11.550781 -6.40625 C 11.550781 -3.183594 9.789062 -1.1875 7.214844 -1.1875 Z M 7.214844 -1.1875 "/></g></g></g><g fill="#f8f3f1" fill-opacity="1"><g transform="translate(839.915935, 514.539438)"><g><path d="M 10.128906 -4.136719 C 10.128906 -3.4375 10.128906 -2.84375 10.148438 -2.285156 C 9.824219 -2.824219 9.480469 -3.363281 9.140625 -3.902344 L 3.382812 -12.808594 L 1.527344 -12.808594 L 1.527344 0 L 3.113281 0 L 3.113281 -8.671875 C 3.113281 -9.335938 3.113281 -9.929688 3.09375 -10.472656 C 3.417969 -9.949219 3.742188 -9.410156 4.085938 -8.886719 L 9.804688 0 L 11.710938 0 L 11.710938 -12.808594 L 10.128906 -12.808594 Z M 10.128906 -4.136719 "/></g></g></g><g fill="#f8f3f1" fill-opacity="1"><g transform="translate(854.039005, 514.539438)"><g><path d="M 0.628906 -12.808594 L 0.628906 -11.351562 L 4.910156 -11.351562 L 4.910156 0 L 6.585938 0 L 6.585938 -11.351562 L 10.867188 -11.351562 L 10.867188 -12.808594 Z M 0.628906 -12.808594 "/></g></g></g><g fill="#f8f3f1" fill-opacity="1"><g transform="translate(864.617807, 514.539438)"><g><path d="M 12.34375 0 L 7.394531 -12.808594 L 5.503906 -12.808594 L 0.539062 0 L 2.320312 0 L 3.707031 -3.761719 L 9.140625 -3.761719 L 10.488281 0 Z M 6.027344 -10.074219 L 6.457031 -11.40625 L 6.871094 -10.074219 L 8.617188 -5.21875 L 4.246094 -5.21875 Z M 6.027344 -10.074219 "/></g></g></g><g fill="#f8f3f1" fill-opacity="1"><g transform="translate(877.841307, 514.539438)"><g><path d="M 6.945312 0.304688 C 9.949219 0.304688 11.929688 -1.582031 12.359375 -4.660156 L 10.703125 -4.660156 C 10.398438 -2.355469 9.011719 -1.1875 7 -1.1875 C 4.390625 -1.1875 2.859375 -3.203125 2.859375 -6.40625 C 2.859375 -9.605469 4.40625 -11.550781 7 -11.550781 C 8.761719 -11.550781 10.09375 -10.632812 10.488281 -8.941406 L 12.199219 -8.941406 C 11.800781 -11.460938 9.605469 -13.042969 6.925781 -13.042969 C 3.398438 -13.042969 1.152344 -10.328125 1.152344 -6.40625 C 1.152344 -2.519531 3.347656 0.304688 6.945312 0.304688 Z M 6.945312 0.304688 "/></g></g></g><g fill="#f8f3f1" fill-opacity="1"><g transform="translate(891.892405, 514.539438)"><g><path d="M 0.628906 -12.808594 L 0.628906 -11.351562 L 4.910156 -11.351562 L 4.910156 0 L 6.585938 0 L 6.585938 -11.351562 L 10.867188 -11.351562 L 10.867188 -12.808594 Z M 0.628906 -12.808594 "/></g></g></g></svg>